<svg width="133" height="67" viewBox="0 0 133 67" fill="none" xmlns="http://www.w3.org/2000/svg">
<path d="M7.41975 29.8262V28.2357H8.55271V29.8262H7.41975ZM4.1516 32.5278C3.4907 32.5278 2.8988 32.4044 2.3759 32.1575C1.85299 31.9178 1.44266 31.5837 1.14489 31.1552C0.85439 30.734 0.709138 30.2583 0.709138 29.7281C0.709138 29.5756 0.720032 29.3832 0.74182 29.1508C0.763608 28.9184 0.792658 28.6605 0.828971 28.3773C0.865284 28.094 0.905228 27.7999 0.948803 27.4949C0.999641 27.1826 1.04685 26.8812 1.09042 26.5907L2.94238 26.8304C2.86249 27.3097 2.79713 27.7454 2.74629 28.1376C2.69545 28.5225 2.65551 28.8494 2.62646 29.1181C2.59741 29.3795 2.58288 29.5756 2.58288 29.7063C2.58288 29.9605 2.64098 30.1784 2.75718 30.36C2.87338 30.5415 3.04769 30.6832 3.28009 30.7848C3.51975 30.8865 3.81026 30.9373 4.1516 30.9373C4.52199 30.9373 4.80886 30.8829 5.01221 30.7739C5.21556 30.6723 5.35718 30.5343 5.43707 30.36C5.51696 30.1857 5.5569 29.9968 5.5569 29.7935V24.3466H7.43065V29.7935C7.43065 30.3382 7.28903 30.8139 7.00579 31.2206C6.72981 31.6346 6.34489 31.9541 5.85104 32.1792C5.35718 32.4116 4.7907 32.5278 4.1516 32.5278ZM8.55271 29.8262V28.2357C8.59629 28.2357 8.62897 28.2538 8.65076 28.2901C8.67981 28.3265 8.7016 28.3809 8.71612 28.4535C8.73791 28.5189 8.75243 28.6024 8.7597 28.7041C8.76696 28.7985 8.77059 28.9075 8.77059 29.0309C8.77059 29.1544 8.76696 29.267 8.7597 29.3686C8.75243 29.463 8.73791 29.5466 8.71612 29.6192C8.7016 29.6846 8.67981 29.7354 8.65076 29.7717C8.62897 29.808 8.59629 29.8262 8.55271 29.8262ZM3.13847 23.6711V22.244H5.0231V23.6711H3.13847ZM8.55016 29.8262V28.2357H11.8292L10.6636 29.2052V24.3466H12.5373V29.8262H8.55016ZM8.55016 29.8262C8.51385 29.8262 8.48117 29.808 8.45212 29.7717C8.42307 29.7354 8.40128 29.6846 8.38675 29.6192C8.37223 29.5466 8.36133 29.463 8.35407 29.3686C8.33955 29.267 8.33228 29.1544 8.33228 29.0309C8.33228 28.8639 8.33955 28.7223 8.35407 28.6061C8.3686 28.4899 8.39402 28.3991 8.43033 28.3337C8.45938 28.2684 8.49932 28.2357 8.55016 28.2357V29.8262ZM8.90966 32.3862V30.9591H10.6962V32.3862H8.90966ZM11.23 32.3862V30.9591H13.0057V32.3862H11.23ZM20.3985 29.8262V28.2357H21.5315V29.8262H20.3985ZM13.6988 29.8262V28.2357H19.3745L18.5248 29.0963V22.2005H20.3985V29.8262H13.6988ZM15.0605 28.2357V23.7147H16.9343V28.2357H15.0605ZM21.5315 29.8262V28.2357C21.5678 28.2357 21.5968 28.2538 21.6186 28.2901C21.6477 28.3265 21.6695 28.3809 21.684 28.4535C21.7058 28.5189 21.7203 28.6024 21.7276 28.7041C21.7421 28.7985 21.7493 28.9075 21.7493 29.0309C21.7493 29.1544 21.7421 29.267 21.7276 29.3686C21.7203 29.463 21.7058 29.5466 21.684 29.6192C21.6695 29.6846 21.6477 29.7354 21.6186 29.7717C21.5968 29.808 21.5678 29.8262 21.5315 29.8262ZM21.5292 29.8262V28.2357H23.8169L22.6512 29.2052V24.3466H24.5359V29.8262H21.5292ZM21.5292 29.8262C21.4929 29.8262 21.4602 29.808 21.4311 29.7717C21.4021 29.7354 21.3803 29.6846 21.3658 29.6192C21.3512 29.5466 21.3403 29.463 21.3331 29.3686C21.3186 29.267 21.3113 29.1544 21.3113 29.0309C21.3113 28.8639 21.3186 28.7223 21.3331 28.6061C21.3476 28.4899 21.373 28.3991 21.4093 28.3337C21.4384 28.2684 21.4783 28.2357 21.5292 28.2357V29.8262ZM22.6512 23.3225V21.8954H24.5359V23.3225H22.6512ZM28.0085 32.7348C27.7253 32.7348 27.4348 32.713 27.137 32.6695C26.8393 32.6332 26.527 32.5823 26.2002 32.517L26.4725 31.0245C26.8284 31.0681 27.1298 31.0971 27.3767 31.1116C27.6309 31.1334 27.8415 31.1443 28.0085 31.1443C28.4733 31.1443 28.8074 31.0644 29.0108 30.9047C29.2141 30.7449 29.3158 30.498 29.3158 30.1639V25.7083L29.6208 25.9371H28.5859C28.3826 25.9371 28.2046 25.9625 28.0521 26.0133C27.8996 26.0642 27.7798 26.1767 27.6926 26.351C27.6127 26.5181 27.5728 26.7795 27.5728 27.1354C27.5728 27.4695 27.6091 27.7164 27.6817 27.8762C27.7544 28.0287 27.8633 28.1267 28.0085 28.1703C28.1611 28.2139 28.3535 28.2357 28.5859 28.2357H29.3158V29.8262H28.5859C27.9759 29.8262 27.453 29.7281 27.0172 29.532C26.5887 29.3359 26.2619 29.0382 26.0368 28.6387C25.8116 28.2393 25.699 27.7382 25.699 27.1354C25.699 26.5326 25.8116 26.0242 26.0368 25.6103C26.2619 25.1963 26.5887 24.884 27.0172 24.6734C27.453 24.4555 27.9759 24.3466 28.5859 24.3466H31.1895V30.1639C31.1895 30.6868 31.0552 31.1407 30.7865 31.5256C30.525 31.9178 30.1546 32.2156 29.6753 32.4189C29.2032 32.6295 28.6476 32.7348 28.0085 32.7348ZM32.8386 29.8262V22.2005H34.7015V29.8262H32.8386ZM33.0129 21.2091C32.8604 21.0276 32.7442 20.8569 32.6643 20.6971C32.5844 20.5301 32.5445 20.3521 32.5445 20.1633C32.5445 19.8873 32.6171 19.6404 32.7623 19.4225C32.9076 19.2047 33.1001 19.034 33.3397 18.9105C33.5794 18.7798 33.8445 18.7144 34.135 18.7144C34.2875 18.7144 34.4436 18.7362 34.6034 18.7798C34.7704 18.8234 34.9084 18.8815 35.0174 18.9541L34.5925 19.7385C34.5199 19.7021 34.4473 19.6804 34.3746 19.6731C34.3093 19.6586 34.2439 19.6513 34.1785 19.6513C34.0042 19.6513 33.8699 19.6985 33.7755 19.7929C33.6811 19.8801 33.6339 19.9963 33.6339 20.1415C33.6339 20.2287 33.6484 20.3122 33.6774 20.3921C33.7137 20.4647 33.7682 20.541 33.8408 20.6209L33.0129 21.2091ZM32.283 21.3508V20.4248H35.257V21.3508H32.283ZM36.0825 29.8262V27.9742H38.0107V29.8262H36.0825ZM48.5646 37.5535C46.8603 37.5535 45.3303 37.234 43.9746 36.5949C42.6189 35.9558 41.5538 35.0843 40.7791 33.9804C40.0044 32.8765 39.6171 31.6273 39.6171 30.2329C39.6171 29.8455 39.6461 29.342 39.7042 28.7223C39.7623 28.0832 39.8398 27.3763 39.9366 26.6016C40.0528 25.8269 40.169 25.0329 40.2852 24.2195C40.4014 23.3867 40.5176 22.583 40.6338 21.8083L45.5724 22.4474C45.3787 23.7256 45.2044 24.8779 45.0495 25.9044C44.9139 26.9308 44.8074 27.8023 44.7299 28.5189C44.6525 29.2355 44.6137 29.7874 44.6137 30.1748C44.6137 30.8526 44.759 31.4143 45.0495 31.8597C45.3593 32.3245 45.8048 32.6828 46.3858 32.9346C46.9862 33.1863 47.7124 33.3122 48.5646 33.3122H55.4495C56.3016 33.3122 56.9891 33.2057 57.512 32.9927C58.035 32.7796 58.4126 32.4601 58.645 32.034C58.8968 31.6079 59.0227 31.0753 59.0227 30.4362V18.758L59.8651 19.4552H57.0763C56.3985 19.4552 55.8659 19.5521 55.4785 19.7457C55.0912 19.92 54.8104 20.2299 54.6361 20.6753C54.4618 21.1208 54.3746 21.7405 54.3746 22.5346C54.3746 23.4448 54.4618 24.113 54.6361 24.539C54.8104 24.9651 55.0912 25.2459 55.4785 25.3815C55.8659 25.517 56.3985 25.5848 57.0763 25.5848H59.0227V29.8262H57.0763C55.4495 29.8262 54.0648 29.5647 52.9221 29.0418C51.7795 28.5189 50.8983 27.7249 50.2785 26.6597C49.6782 25.5751 49.378 24.2001 49.378 22.5346C49.378 20.9852 49.6782 19.6683 50.2785 18.5837C50.8983 17.4798 51.7795 16.647 52.9221 16.0854C54.0648 15.5044 55.4495 15.2139 57.0763 15.2139H64.0193V30.4362C64.0193 31.8306 63.661 33.0604 62.9445 34.1256C62.2279 35.2102 61.2208 36.0526 59.9232 36.653C58.645 37.2534 57.1538 37.5535 55.4495 37.5535H48.5646ZM52.0215 12.4832V8.67757H56.7858V12.4832H52.0215ZM58.2093 12.4832V8.67757H62.9445V12.4832H58.2093ZM68.4434 29.8262V9.49098H73.411V29.8262H68.4434ZM91.706 29.8262V25.5848H94.7273V29.8262H91.706ZM83.2234 37.5826C82.4681 37.5826 81.6934 37.5245 80.8993 37.4083C80.1053 37.3115 79.2725 37.1759 78.401 37.0016L79.1273 33.0217C80.0762 33.1379 80.88 33.2154 81.5384 33.2541C82.2163 33.3122 82.7779 33.3413 83.2234 33.3413C84.4628 33.3413 85.3537 33.1282 85.896 32.7021C86.4383 32.2761 86.7094 31.6176 86.7094 30.7267V18.8452L87.5228 19.4552H84.763C84.2208 19.4552 83.7463 19.523 83.3396 19.6586C82.9329 19.7941 82.6133 20.0943 82.3809 20.5591C82.1679 21.0046 82.0613 21.7018 82.0613 22.6508C82.0613 23.5416 82.1582 24.2001 82.3518 24.6262C82.5455 25.0329 82.836 25.2943 83.2234 25.4105C83.6301 25.5267 84.1433 25.5848 84.763 25.5848H86.7094V29.8262H84.763C83.1362 29.8262 81.7418 29.5647 80.5798 29.0418C79.4371 28.5189 78.5656 27.7249 77.9653 26.6597C77.3649 25.5945 77.0647 24.2582 77.0647 22.6508C77.0647 21.0433 77.3649 19.6876 77.9653 18.5837C78.5656 17.4798 79.4371 16.647 80.5798 16.0854C81.7418 15.5044 83.1362 15.2139 84.763 15.2139H91.706V30.7267C91.706 32.1211 91.3478 33.3316 90.6312 34.358C89.934 35.4038 88.9463 36.1979 87.6681 36.7401C86.4092 37.3018 84.9276 37.5826 83.2234 37.5826ZM94.7273 29.8262V25.5848C94.8241 25.5848 94.9016 25.6332 94.9597 25.7301C95.0371 25.8269 95.0952 25.9722 95.134 26.1658C95.1921 26.3401 95.2308 26.5629 95.2502 26.834C95.2889 27.0858 95.3083 27.3763 95.3083 27.7055C95.3083 28.0347 95.2889 28.3349 95.2502 28.6061C95.2308 28.8578 95.1921 29.0805 95.134 29.2742C95.0952 29.4485 95.0371 29.5841 94.9597 29.6809C94.9016 29.7778 94.8241 29.8262 94.7273 29.8262ZM113.042 29.8262C112.151 29.8262 111.26 29.6616 110.369 29.3323C109.498 28.9837 108.703 28.4899 107.987 27.8508L111.008 24.7424C111.337 25.0135 111.667 25.2265 111.996 25.3815C112.344 25.517 112.693 25.5848 113.042 25.5848H118.706L115.889 28.0251V21.8954C115.889 21.6049 115.85 21.1498 115.772 20.5301C115.714 19.9103 115.617 19.2035 115.482 18.4094C115.366 17.596 115.23 16.7632 115.075 15.9111L119.985 15.2139C120.12 15.9111 120.256 16.7051 120.391 17.596C120.527 18.4675 120.643 19.2906 120.74 20.0653C120.837 20.84 120.885 21.45 120.885 21.8954V29.8262H113.042ZM94.74 29.8262V25.5848H98.9523L97.9355 26.6887V18.2061H102.932V29.8262H94.74ZM102.932 29.8262V25.5848H104.675C105.276 25.5848 105.731 25.4977 106.041 25.3234C106.35 25.1297 106.563 24.7521 106.68 24.1904C106.815 23.6094 106.883 22.7379 106.883 21.5759V16.7535H111.88V21.5759C111.88 23.4738 111.618 25.0329 111.095 26.253C110.572 27.4731 109.778 28.3737 108.713 28.9547C107.667 29.5357 106.321 29.8262 104.675 29.8262H102.932ZM94.74 29.8262C94.6431 29.8262 94.556 29.7778 94.4785 29.6809C94.4011 29.5841 94.343 29.4485 94.3042 29.2742C94.2655 29.0805 94.2364 28.8578 94.2171 28.6061C94.1783 28.3349 94.159 28.0347 94.159 27.7055C94.159 27.2601 94.1783 26.8824 94.2171 26.5725C94.2558 26.2627 94.3236 26.0206 94.4204 25.8463C94.4979 25.672 94.6044 25.5848 94.74 25.5848V29.8262ZM125.267 29.8262V9.49098H130.235V29.8262H125.267ZM125.732 6.8474C125.325 6.36323 125.016 5.90811 124.802 5.48204C124.589 5.0366 124.483 4.56211 124.483 4.05857C124.483 3.32263 124.677 2.66416 125.064 2.08316C125.451 1.50215 125.964 1.04703 126.604 0.717791C127.243 0.369187 127.95 0.194886 128.724 0.194886C129.131 0.194886 129.547 0.252987 129.973 0.369189C130.419 0.485391 130.787 0.640326 131.077 0.833994L129.944 2.92561C129.751 2.82878 129.557 2.77068 129.363 2.75131C129.189 2.71258 129.015 2.69321 128.84 2.69321C128.376 2.69321 128.017 2.8191 127.766 3.07086C127.514 3.30327 127.388 3.61314 127.388 4.00047C127.388 4.23288 127.427 4.45559 127.504 4.66863C127.601 4.8623 127.746 5.06565 127.94 5.27869L125.732 6.8474ZM123.786 7.22505V4.75578H131.716V7.22505H123.786Z" fill="#006DB6"/>
<path d="M22.4062 61.4932L21.6524 59.335H16.9869L16.2411 61.4932H13.1704L17.463 49.8293H21.1843L25.4769 61.4932H22.4062ZM17.8518 56.8435H20.7876L19.3197 52.6223L17.8518 56.8435ZM31.2371 61.6519C30.3748 61.6519 29.592 61.5196 28.8884 61.2551C28.1902 60.9906 27.6057 60.586 27.1349 60.0411C26.6694 59.4963 26.3838 58.843 26.278 58.0813L29.4121 57.3672C29.4544 57.9808 29.6502 58.4463 29.9993 58.7637C30.3537 59.0758 30.8086 59.2318 31.364 59.2318C31.7555 59.2318 32.0623 59.1419 32.2844 58.962C32.5066 58.7822 32.6177 58.5256 32.6177 58.1924C32.6177 57.9332 32.4987 57.7004 32.2606 57.4941C32.0279 57.2878 31.8004 57.1397 31.5783 57.0498C31.3561 56.9546 30.9699 56.8144 30.4198 56.6293C30.3881 56.6187 30.3616 56.6108 30.3405 56.6055C30.3246 56.5949 30.3008 56.587 30.2691 56.5817C30.2426 56.5711 30.2188 56.5605 30.1976 56.5499C29.9067 56.4547 29.666 56.3727 29.4756 56.304C29.2905 56.2352 29.063 56.14 28.7932 56.0183C28.5234 55.8966 28.3013 55.7803 28.1267 55.6692C27.9574 55.5528 27.7723 55.4073 27.5713 55.2328C27.3756 55.0582 27.2222 54.8757 27.1111 54.6853C27 54.4949 26.9048 54.2701 26.8255 54.0109C26.7514 53.7464 26.7144 53.466 26.7144 53.1698C26.7144 52.096 27.1085 51.2443 27.8966 50.6149C28.6848 49.9801 29.7163 49.6627 30.9911 49.6627C31.5307 49.6627 32.0464 49.7209 32.5383 49.8373C33.0303 49.9484 33.5011 50.1256 33.9507 50.3689C34.4003 50.6069 34.7838 50.9428 35.1012 51.3766C35.4186 51.8051 35.6355 52.3076 35.7518 52.8842L32.8478 53.5983C32.6891 52.5879 32.1363 52.0828 31.1895 52.0828C30.7557 52.0828 30.4092 52.17 30.15 52.3446C29.8961 52.5139 29.7692 52.7625 29.7692 53.0905C29.7692 53.2015 29.8036 53.3073 29.8723 53.4078C29.9411 53.5083 30.0257 53.5956 30.1262 53.6697C30.2267 53.7384 30.3696 53.8125 30.5547 53.8918C30.7398 53.9659 30.9065 54.0294 31.0546 54.0823C31.208 54.1352 31.4116 54.2013 31.6655 54.2806C31.8189 54.3282 31.9353 54.3653 32.0147 54.3917C32.2421 54.4658 32.4325 54.5319 32.5859 54.5901C32.7446 54.643 32.9351 54.7144 33.1572 54.8043C33.3847 54.8942 33.5751 54.9815 33.7285 55.0662C33.8872 55.1508 34.0618 55.2539 34.2522 55.3756C34.4479 55.492 34.6119 55.6136 34.7442 55.7406C34.8817 55.8623 35.0166 56.0077 35.1488 56.177C35.2863 56.341 35.3948 56.5129 35.4741 56.6927C35.5588 56.8726 35.6249 57.0763 35.6725 57.3037C35.7254 57.5312 35.7518 57.7692 35.7518 58.0178C35.7518 58.6367 35.6275 59.1842 35.3789 59.6603C35.1356 60.1364 34.7997 60.5172 34.3712 60.8029C33.948 61.0832 33.472 61.2948 32.943 61.4376C32.414 61.5804 31.8454 61.6519 31.2371 61.6519ZM39.2824 61.4932L36.426 49.8293H39.5601L41.5279 58.1606L43.9321 49.8293H46.4473L48.8356 58.1606L50.8193 49.8293H53.9534L51.097 61.4932H47.098L45.1778 55.4153L43.2814 61.4932H39.2824ZM63.2286 61.4932L62.4748 59.335H57.8093L57.0635 61.4932H53.9928L58.2854 49.8293H62.0067L66.2993 61.4932H63.2286ZM58.6742 56.8435H61.61L60.1421 52.6223L58.6742 56.8435ZM79.1927 61.9137L76.7329 62.8738L75.2968 61.2155C74.5298 61.5064 73.694 61.6519 72.7895 61.6519C71.6046 61.6519 70.544 61.4059 69.6077 60.9139C68.6767 60.4167 67.9467 59.7132 67.4178 58.8033C66.8888 57.8882 66.6243 56.8409 66.6243 55.6613C66.6243 54.4711 66.8888 53.4211 67.4178 52.5112C67.9467 51.5961 68.6767 50.8926 69.6077 50.4006C70.544 49.9087 71.6046 49.6627 72.7895 49.6627C73.9796 49.6627 75.0402 49.9087 75.9712 50.4006C76.9075 50.8926 77.6401 51.5961 78.1691 52.5112C78.6981 53.4211 78.9626 54.4711 78.9626 55.6613C78.9626 57.3275 78.4521 58.7055 77.4312 59.7952L79.1927 61.9137ZM69.6315 55.6613C69.6315 56.7192 69.9251 57.5523 70.5122 58.1606C71.1047 58.769 71.8638 59.0731 72.7895 59.0731C73.7204 59.0731 74.4795 58.769 75.0667 58.1606C75.6591 57.5523 75.9554 56.7192 75.9554 55.6613C75.9554 54.6774 75.6591 53.8892 75.0667 53.2968C74.4742 52.7043 73.7152 52.4081 72.7895 52.4081C71.869 52.4081 71.1126 52.7043 70.5202 53.2968C69.9277 53.8892 69.6315 54.6774 69.6315 55.6613ZM81.5092 61.5884C81.2553 61.5884 81.0347 61.4963 80.8475 61.3123C80.6634 61.1282 80.5714 60.9092 80.5714 60.6553C80.5714 60.395 80.6634 60.1729 80.8475 59.9888C81.0347 59.8015 81.2553 59.7079 81.5092 59.7079C81.7663 59.7079 81.9869 59.8015 82.171 59.9888C82.3582 60.1729 82.4519 60.395 82.4519 60.6553C82.4519 60.9092 82.3582 61.1282 82.171 61.3123C81.9869 61.4963 81.7663 61.5884 81.5092 61.5884ZM89.1072 61.1456C88.5581 61.4408 87.9329 61.5884 87.2315 61.5884C86.53 61.5884 85.9048 61.4408 85.3557 61.1456C84.8067 60.8473 84.3766 60.4252 84.0656 59.8793C83.7545 59.3302 83.599 58.7018 83.599 57.994C83.599 57.2799 83.7545 56.6499 84.0656 56.104C84.3766 55.5549 84.8067 55.1328 85.3557 54.8376C85.9048 54.5425 86.53 54.3949 87.2315 54.3949C87.9329 54.3949 88.5581 54.5425 89.1072 54.8376C89.6594 55.1328 90.0911 55.5549 90.4021 56.104C90.7132 56.6499 90.8687 57.2799 90.8687 57.994C90.8687 58.7018 90.7132 59.3302 90.4021 59.8793C90.0911 60.4252 89.6594 60.8473 89.1072 61.1456ZM87.2315 59.9412C87.771 59.9412 88.2138 59.765 88.5597 59.4127C88.9057 59.0573 89.0786 58.5844 89.0786 57.994C89.0786 57.4037 88.9041 56.9308 88.5549 56.5753C88.209 56.2198 87.7678 56.0421 87.2315 56.0421C86.6951 56.0421 86.2555 56.2198 85.9127 56.5753C85.57 56.9308 85.3986 57.4037 85.3986 57.994C85.3986 58.5844 85.57 59.0573 85.9127 59.4127C86.2555 59.765 86.6951 59.9412 87.2315 59.9412ZM95.3531 56.3563C96.0005 56.3563 96.4877 56.5071 96.8146 56.8086C97.1447 57.1101 97.3098 57.5402 97.3098 58.0988V61.4932H95.5673V58.4701C95.5673 58.2098 95.4943 58.021 95.3483 57.9036C95.2055 57.7861 95.0182 57.7274 94.7866 57.7274C94.0978 57.7274 93.7503 58.1051 93.744 58.8605V61.4932H92.0063V56.4515H93.744V56.9705C94.1375 56.561 94.6739 56.3563 95.3531 56.3563ZM98.6569 61.4932V54.1807H100.414V61.4932H98.6569ZM102.746 55.9659C102.483 55.9659 102.257 55.8739 102.07 55.6898C101.883 55.5057 101.789 55.282 101.789 55.0186C101.789 54.7615 101.883 54.5425 102.07 54.3616C102.257 54.1775 102.483 54.0854 102.746 54.0854C103 54.0854 103.219 54.1775 103.403 54.3616C103.587 54.5425 103.679 54.7615 103.679 55.0186C103.679 55.282 103.587 55.5057 103.403 55.6898C103.219 55.8739 103 55.9659 102.746 55.9659ZM101.861 61.4932V56.4515H103.608V61.4932H101.861ZM108.402 56.3563C109.049 56.3563 109.536 56.5071 109.863 56.8086C110.193 57.1101 110.358 57.5402 110.358 58.0988V61.4932H108.616V58.4701C108.616 58.2098 108.543 58.021 108.397 57.9036C108.254 57.7861 108.067 57.7274 107.835 57.7274C107.146 57.7274 106.799 58.1051 106.793 58.8605V61.4932H105.055V56.4515H106.793V56.9705C107.186 56.561 107.723 56.3563 108.402 56.3563ZM116.647 58.9176L116.628 59.3175H113.029C113.064 59.619 113.18 59.8491 113.376 60.0078C113.573 60.1665 113.816 60.2458 114.105 60.2458C114.559 60.2458 114.854 60.0665 114.99 59.7079L116.59 59.9126C116.438 60.4458 116.141 60.8584 115.7 61.1504C115.259 61.4424 114.73 61.5884 114.114 61.5884C113.238 61.5884 112.551 61.3599 112.053 60.9028C111.555 60.4426 111.306 59.8015 111.306 58.9795C111.306 58.1575 111.556 57.5132 112.058 57.0466C112.559 56.5801 113.226 56.3468 114.057 56.3468C114.435 56.3468 114.776 56.3976 115.081 56.4991C115.389 56.5975 115.66 56.7483 115.895 56.9514C116.133 57.1514 116.317 57.4196 116.447 57.756C116.577 58.0892 116.644 58.4764 116.647 58.9176ZM114.067 57.5465C113.527 57.5465 113.197 57.7703 113.077 58.2178H114.943C114.895 58.002 114.794 57.8369 114.638 57.7227C114.483 57.6052 114.292 57.5465 114.067 57.5465Z" fill="#006DB6"/>
</svg>
