<?xml version="1.0" encoding="UTF-8" standalone="no"?>
<!DOCTYPE svg PUBLIC "-//W3C//DTD SVG 1.1//EN" "http://www.w3.org/Graphics/SVG/1.1/DTD/svg11.dtd">
<svg width="100%" height="100%" viewBox="0 0 133 66" version="1.1" xmlns="http://www.w3.org/2000/svg" xmlns:xlink="http://www.w3.org/1999/xlink" xml:space="preserve" xmlns:serif="http://www.serif.com/" style="fill-rule:evenodd;clip-rule:evenodd;stroke-linejoin:round;stroke-miterlimit:2;">
    <path d="M7.42,30L7.42,28.41L8.553,28.41L8.553,30L7.42,30ZM4.152,32.702C3.491,32.702 2.899,32.578 2.376,32.331C1.853,32.092 1.443,31.758 1.145,31.329C0.854,30.908 0.709,30.432 0.709,29.902C0.709,29.749 0.72,29.557 0.742,29.325C0.764,29.092 0.793,28.834 0.829,28.551C0.865,28.268 0.905,27.974 0.949,27.669C1,27.356 1.047,27.055 1.09,26.765L2.942,27.004C2.862,27.484 2.797,27.919 2.746,28.312C2.695,28.696 2.656,29.023 2.626,29.292C2.597,29.553 2.583,29.749 2.583,29.88C2.583,30.134 2.641,30.352 2.757,30.534C2.873,30.715 3.048,30.857 3.28,30.959C3.52,31.06 3.81,31.111 4.152,31.111C4.522,31.111 4.809,31.057 5.012,30.948C5.216,30.846 5.357,30.708 5.437,30.534C5.517,30.36 5.557,30.171 5.557,29.967L5.557,24.52L7.431,24.52L7.431,29.967C7.431,30.512 7.289,30.988 7.006,31.394C6.73,31.808 6.345,32.128 5.851,32.353C5.357,32.586 4.791,32.702 4.152,32.702ZM8.553,30L8.553,28.41C8.596,28.41 8.629,28.428 8.651,28.464C8.68,28.5 8.702,28.555 8.716,28.627C8.738,28.693 8.752,28.776 8.76,28.878C8.767,28.972 8.771,29.081 8.771,29.205C8.771,29.328 8.767,29.441 8.76,29.543C8.752,29.637 8.738,29.72 8.716,29.793C8.702,29.858 8.68,29.909 8.651,29.946C8.629,29.982 8.596,30 8.553,30ZM3.138,23.845L3.138,22.418L5.023,22.418L5.023,23.845L3.138,23.845ZM8.55,30L8.55,28.41L11.829,28.41L10.664,29.379L10.664,24.52L12.537,24.52L12.537,30L8.55,30ZM8.55,30C8.514,30 8.481,29.982 8.452,29.946C8.423,29.909 8.401,29.858 8.387,29.793C8.372,29.72 8.361,29.637 8.354,29.543C8.34,29.441 8.332,29.328 8.332,29.205C8.332,29.038 8.34,28.896 8.354,28.78C8.369,28.664 8.394,28.573 8.43,28.508C8.459,28.442 8.499,28.41 8.55,28.41L8.55,30ZM8.91,32.56L8.91,31.133L10.696,31.133L10.696,32.56L8.91,32.56ZM11.23,32.56L11.23,31.133L13.006,31.133L13.006,32.56L11.23,32.56ZM20.398,30L20.398,28.41L21.532,28.41L21.532,30L20.398,30ZM13.699,30L13.699,28.41L19.375,28.41L18.525,29.27L18.525,22.374L20.398,22.374L20.398,30L13.699,30ZM15.06,28.41L15.06,23.889L16.934,23.889L16.934,28.41L15.06,28.41ZM21.532,30L21.532,28.41C21.568,28.41 21.597,28.428 21.619,28.464C21.648,28.5 21.67,28.555 21.684,28.627C21.706,28.693 21.72,28.776 21.728,28.878C21.742,28.972 21.749,29.081 21.749,29.205C21.749,29.328 21.742,29.441 21.728,29.543C21.72,29.637 21.706,29.72 21.684,29.793C21.67,29.858 21.648,29.909 21.619,29.946C21.597,29.982 21.568,30 21.532,30ZM21.529,30L21.529,28.41L23.817,28.41L22.651,29.379L22.651,24.52L24.536,24.52L24.536,30L21.529,30ZM21.529,30C21.493,30 21.46,29.982 21.431,29.946C21.402,29.909 21.38,29.858 21.366,29.793C21.351,29.72 21.34,29.637 21.333,29.543C21.319,29.441 21.311,29.328 21.311,29.205C21.311,29.038 21.319,28.896 21.333,28.78C21.348,28.664 21.373,28.573 21.409,28.508C21.438,28.442 21.478,28.41 21.529,28.41L21.529,30ZM22.651,23.496L22.651,22.069L24.536,22.069L24.536,23.496L22.651,23.496ZM28.009,32.909C27.725,32.909 27.435,32.887 27.137,32.843C26.839,32.807 26.527,32.756 26.2,32.691L26.473,31.198C26.828,31.242 27.13,31.271 27.377,31.286C27.631,31.307 27.842,31.318 28.009,31.318C28.473,31.318 28.807,31.238 29.011,31.078C29.214,30.919 29.316,30.672 29.316,30.338L29.316,25.882L29.621,26.111L28.586,26.111C28.383,26.111 28.205,26.136 28.052,26.187C27.9,26.238 27.78,26.351 27.693,26.525C27.613,26.692 27.573,26.953 27.573,27.309C27.573,27.643 27.609,27.89 27.682,28.05C27.754,28.203 27.863,28.301 28.009,28.344C28.161,28.388 28.354,28.41 28.586,28.41L29.316,28.41L29.316,30L28.586,30C27.976,30 27.453,29.902 27.017,29.706C26.589,29.51 26.262,29.212 26.037,28.813C25.812,28.413 25.699,27.912 25.699,27.309C25.699,26.706 25.812,26.198 26.037,25.784C26.262,25.37 26.589,25.058 27.017,24.847C27.453,24.629 27.976,24.52 28.586,24.52L31.19,24.52L31.19,30.338C31.19,30.861 31.055,31.315 30.787,31.699C30.525,32.092 30.155,32.389 29.675,32.593C29.203,32.803 28.648,32.909 28.009,32.909ZM32.839,30L32.839,22.374L34.702,22.374L34.702,30L32.839,30ZM33.013,21.383C32.86,21.201 32.744,21.031 32.664,20.871C32.584,20.704 32.545,20.526 32.545,20.337C32.545,20.061 32.617,19.814 32.762,19.596C32.908,19.379 33.1,19.208 33.34,19.084C33.579,18.954 33.844,18.888 34.135,18.888C34.288,18.888 34.444,18.91 34.603,18.954C34.77,18.997 34.908,19.055 35.017,19.128L34.593,19.912C34.52,19.876 34.447,19.854 34.375,19.847C34.309,19.832 34.244,19.825 34.179,19.825C34.004,19.825 33.87,19.872 33.776,19.967C33.681,20.054 33.634,20.17 33.634,20.315C33.634,20.403 33.648,20.486 33.677,20.566C33.714,20.639 33.768,20.715 33.841,20.795L33.013,21.383ZM32.283,21.525L32.283,20.599L35.257,20.599L35.257,21.525L32.283,21.525ZM36.083,30L36.083,28.148L38.011,28.148L38.011,30L36.083,30Z" style="fill:rgb(249,115,22);fill-rule:nonzero;"/>
    <path d="M48.565,37.727C46.86,37.727 45.33,37.408 43.975,36.769C42.619,36.13 41.554,35.258 40.779,34.154C40.004,33.05 39.617,31.801 39.617,30.407C39.617,30.019 39.646,29.516 39.704,28.896C39.762,28.257 39.84,27.55 39.937,26.775C40.053,26.001 40.169,25.207 40.285,24.393C40.401,23.561 40.518,22.757 40.634,21.982L45.572,22.621C45.379,23.899 45.204,25.052 45.05,26.078C44.914,27.105 44.807,27.976 44.73,28.693C44.653,29.409 44.614,29.961 44.614,30.349C44.614,31.026 44.759,31.588 45.05,32.033C45.359,32.498 45.805,32.857 46.386,33.108C46.986,33.36 47.712,33.486 48.565,33.486L55.45,33.486C56.302,33.486 56.989,33.38 57.512,33.167C58.035,32.953 58.413,32.634 58.645,32.208C58.897,31.782 59.023,31.249 59.023,30.61L59.023,18.932L59.865,19.629L57.076,19.629C56.399,19.629 55.866,19.726 55.478,19.92C55.091,20.094 54.81,20.404 54.636,20.849C54.462,21.295 54.375,21.914 54.375,22.708C54.375,23.619 54.462,24.287 54.636,24.713C54.81,25.139 55.091,25.42 55.478,25.555C55.866,25.691 56.399,25.759 57.076,25.759L59.023,25.759L59.023,30L57.076,30C55.45,30 54.065,29.738 52.922,29.216C51.78,28.693 50.898,27.899 50.279,26.834C49.678,25.749 49.378,24.374 49.378,22.708C49.378,21.159 49.678,19.842 50.279,18.758C50.898,17.654 51.78,16.821 52.922,16.259C54.065,15.678 55.45,15.388 57.076,15.388L64.019,15.388L64.019,30.61C64.019,32.005 63.661,33.234 62.945,34.299C62.228,35.384 61.221,36.226 59.923,36.827C58.645,37.427 57.154,37.727 55.45,37.727L48.565,37.727ZM52.022,12.657L52.022,8.851L56.786,8.851L56.786,12.657L52.022,12.657ZM58.209,12.657L58.209,8.851L62.945,8.851L62.945,12.657L58.209,12.657ZM68.443,30L68.443,9.665L73.411,9.665L73.411,30L68.443,30ZM91.706,30L91.706,25.759L94.727,25.759L94.727,30L91.706,30ZM83.223,37.756C82.468,37.756 81.693,37.698 80.899,37.582C80.105,37.485 79.272,37.35 78.401,37.175L79.127,33.196C80.076,33.312 80.88,33.389 81.538,33.428C82.216,33.486 82.778,33.515 83.223,33.515C84.463,33.515 85.354,33.302 85.896,32.876C86.438,32.45 86.709,31.791 86.709,30.901L86.709,19.019L87.523,19.629L84.763,19.629C84.221,19.629 83.746,19.697 83.34,19.832C82.933,19.968 82.613,20.268 82.381,20.733C82.168,21.178 82.061,21.876 82.061,22.825C82.061,23.716 82.158,24.374 82.352,24.8C82.546,25.207 82.836,25.468 83.223,25.584C83.63,25.701 84.143,25.759 84.763,25.759L86.709,25.759L86.709,30L84.763,30C83.136,30 81.742,29.738 80.58,29.216C79.437,28.693 78.566,27.899 77.965,26.834C77.365,25.768 77.065,24.432 77.065,22.825C77.065,21.217 77.365,19.862 77.965,18.758C78.566,17.654 79.437,16.821 80.58,16.259C81.742,15.678 83.136,15.388 84.763,15.388L91.706,15.388L91.706,30.901C91.706,32.295 91.348,33.505 90.631,34.532C89.934,35.578 88.946,36.372 87.668,36.914C86.409,37.476 84.928,37.756 83.223,37.756ZM94.727,30L94.727,25.759C94.824,25.759 94.902,25.807 94.96,25.904C95.037,26.001 95.095,26.146 95.134,26.34C95.192,26.514 95.231,26.737 95.25,27.008C95.289,27.26 95.308,27.55 95.308,27.879C95.308,28.209 95.289,28.509 95.25,28.78C95.231,29.032 95.192,29.254 95.134,29.448C95.095,29.622 95.037,29.758 94.96,29.855C94.902,29.952 94.824,30 94.727,30ZM113.042,30C112.151,30 111.26,29.835 110.369,29.506C109.498,29.158 108.703,28.664 107.987,28.025L111.008,24.916C111.337,25.187 111.667,25.4 111.996,25.555C112.344,25.691 112.693,25.759 113.042,25.759L118.706,25.759L115.889,28.199L115.889,22.069C115.889,21.779 115.85,21.324 115.772,20.704C115.714,20.084 115.617,19.377 115.482,18.583C115.366,17.77 115.23,16.937 115.075,16.085L119.985,15.388C120.12,16.085 120.256,16.879 120.391,17.77C120.527,18.641 120.643,19.464 120.74,20.239C120.837,21.014 120.885,21.624 120.885,22.069L120.885,30L113.042,30ZM94.74,30L94.74,25.759L98.952,25.759L97.936,26.863L97.936,18.38L102.932,18.38L102.932,30L94.74,30ZM102.932,30L102.932,25.759L104.675,25.759C105.276,25.759 105.731,25.672 106.041,25.497C106.35,25.304 106.563,24.926 106.68,24.364C106.815,23.783 106.883,22.912 106.883,21.75L106.883,16.927L111.88,16.927L111.88,21.75C111.88,23.648 111.618,25.207 111.095,26.427C110.572,27.647 109.778,28.548 108.713,29.129C107.667,29.709 106.321,30 104.675,30L102.932,30ZM94.74,30C94.643,30 94.556,29.952 94.479,29.855C94.401,29.758 94.343,29.622 94.304,29.448C94.266,29.254 94.236,29.032 94.217,28.78C94.178,28.509 94.159,28.209 94.159,27.879C94.159,27.434 94.178,27.056 94.217,26.746C94.256,26.437 94.324,26.194 94.42,26.02C94.498,25.846 94.604,25.759 94.74,25.759L94.74,30ZM125.267,30L125.267,9.665L130.235,9.665L130.235,30L125.267,30ZM125.732,7.021C125.325,6.537 125.016,6.082 124.802,5.656C124.589,5.21 124.483,4.736 124.483,4.232C124.483,3.496 124.677,2.838 125.064,2.257C125.451,1.676 125.964,1.221 126.604,0.892C127.243,0.543 127.95,0.369 128.724,0.369C129.131,0.369 129.547,0.427 129.973,0.543C130.419,0.659 130.787,0.814 131.077,1.008L129.944,3.099C129.751,3.003 129.557,2.945 129.363,2.925C129.189,2.886 129.015,2.867 128.84,2.867C128.376,2.867 128.017,2.993 127.766,3.245C127.514,3.477 127.388,3.787 127.388,4.174C127.388,4.407 127.427,4.629 127.504,4.842C127.601,5.036 127.746,5.239 127.94,5.453L125.732,7.021ZM123.786,7.399L123.786,4.93L131.716,4.93L131.716,7.399L123.786,7.399Z" style="fill:rgb(37,99,235);fill-rule:nonzero;"/>
    <path d="M24.656,61.667L23.908,59.506L19.537,59.506L18.79,61.667L15.572,61.667L19.862,50L23.583,50L27.873,61.667L24.656,61.667ZM20.382,57.02L23.063,57.02L21.731,53.152L20.382,57.02ZM33.089,61.911C32.449,61.911 31.843,61.83 31.269,61.667C30.705,61.505 30.201,61.272 29.757,60.968C29.324,60.654 28.961,60.27 28.669,59.815C28.387,59.359 28.203,58.84 28.116,58.255L31.106,57.621C31.269,58.282 31.523,58.753 31.87,59.035C32.216,59.316 32.639,59.457 33.137,59.457C33.56,59.457 33.885,59.37 34.112,59.197C34.34,59.024 34.454,58.78 34.454,58.466C34.454,58.271 34.394,58.103 34.275,57.962C34.166,57.821 34.015,57.697 33.82,57.588C33.625,57.469 33.397,57.366 33.137,57.28C32.888,57.182 32.617,57.085 32.325,56.987C31.902,56.846 31.469,56.689 31.025,56.516C30.581,56.342 30.174,56.12 29.806,55.85C29.438,55.579 29.134,55.243 28.896,54.842C28.669,54.43 28.555,53.921 28.555,53.315C28.555,52.773 28.658,52.285 28.863,51.852C29.08,51.419 29.373,51.045 29.741,50.731C30.12,50.417 30.57,50.178 31.09,50.016C31.621,49.842 32.2,49.756 32.829,49.756C33.338,49.756 33.847,49.815 34.356,49.935C34.876,50.054 35.353,50.243 35.786,50.503C36.23,50.763 36.609,51.105 36.923,51.527C37.249,51.939 37.471,52.448 37.59,53.054L34.876,53.672C34.692,53.163 34.454,52.795 34.161,52.567C33.879,52.329 33.5,52.21 33.024,52.21C32.612,52.21 32.271,52.291 32,52.453C31.74,52.616 31.61,52.843 31.61,53.136C31.61,53.298 31.659,53.439 31.756,53.558C31.864,53.667 32.005,53.77 32.179,53.867C32.363,53.954 32.569,54.035 32.796,54.111C33.034,54.187 33.289,54.268 33.56,54.355C34.004,54.484 34.459,54.636 34.925,54.81C35.401,54.983 35.835,55.21 36.225,55.492C36.626,55.774 36.951,56.137 37.2,56.581C37.46,57.014 37.59,57.567 37.59,58.238C37.59,58.791 37.481,59.295 37.265,59.75C37.048,60.194 36.745,60.578 36.355,60.903C35.965,61.228 35.494,61.477 34.941,61.651C34.389,61.824 33.771,61.911 33.089,61.911ZM53.03,50L56.15,50L53.29,61.667L49.293,61.667L47.375,55.59L45.474,61.667L41.477,61.667L38.617,50L41.737,50L43.719,58.352L46.124,50L48.643,50L51.032,58.352L53.03,50ZM64.51,61.667L63.763,59.506L59.392,59.506L58.644,61.667L55.426,61.667L59.717,50L63.438,50L67.728,61.667L64.51,61.667ZM60.237,57.02L62.918,57.02L61.585,53.152L60.237,57.02ZM80.558,62.09L77.958,63.097L76.496,61.472C75.77,61.765 74.963,61.911 74.074,61.911C73.197,61.911 72.384,61.765 71.637,61.472C70.9,61.179 70.261,60.768 69.719,60.237C69.189,59.695 68.772,59.051 68.468,58.303C68.165,57.556 68.013,56.732 68.013,55.833C68.013,54.934 68.165,54.111 68.468,53.363C68.772,52.616 69.189,51.977 69.719,51.446C70.261,50.904 70.9,50.487 71.637,50.195C72.384,49.902 73.197,49.756 74.074,49.756C74.952,49.756 75.759,49.902 76.496,50.195C77.243,50.487 77.882,50.904 78.413,51.446C78.955,51.977 79.377,52.616 79.681,53.363C79.984,54.111 80.136,54.934 80.136,55.833C80.136,56.635 80.016,57.377 79.778,58.06C79.54,58.731 79.204,59.327 78.771,59.847L80.558,62.09ZM71.036,55.833C71.036,56.332 71.112,56.787 71.263,57.198C71.415,57.599 71.626,57.946 71.897,58.238C72.168,58.531 72.487,58.758 72.856,58.921C73.235,59.072 73.641,59.148 74.074,59.148C74.519,59.148 74.925,59.072 75.293,58.921C75.662,58.758 75.981,58.531 76.252,58.238C76.523,57.946 76.734,57.599 76.886,57.198C77.037,56.787 77.113,56.332 77.113,55.833C77.113,55.335 77.037,54.885 76.886,54.484C76.734,54.073 76.523,53.721 76.252,53.428C75.981,53.136 75.662,52.914 75.293,52.762C74.925,52.6 74.519,52.518 74.074,52.518C73.641,52.518 73.235,52.6 72.856,52.762C72.487,52.914 72.168,53.136 71.897,53.428C71.626,53.721 71.415,54.073 71.263,54.484C71.112,54.885 71.036,55.335 71.036,55.833Z" style="fill:rgb(37,99,235);fill-rule:nonzero;"/>
    <path d="M82.653,61.765C82.53,61.765 82.409,61.739 82.292,61.687C82.182,61.641 82.081,61.576 81.99,61.492C81.906,61.401 81.837,61.3 81.785,61.189C81.74,61.072 81.717,60.952 81.717,60.829C81.717,60.699 81.74,60.578 81.785,60.468C81.837,60.351 81.906,60.25 81.99,60.166C82.081,60.075 82.182,60.006 82.292,59.961C82.409,59.909 82.53,59.883 82.653,59.883C82.783,59.883 82.903,59.909 83.014,59.961C83.131,60.006 83.232,60.075 83.316,60.166C83.407,60.25 83.475,60.351 83.521,60.468C83.573,60.578 83.599,60.699 83.599,60.829C83.599,60.952 83.573,61.072 83.521,61.189C83.475,61.3 83.407,61.401 83.316,61.492C83.232,61.576 83.131,61.641 83.014,61.687C82.903,61.739 82.783,61.765 82.653,61.765ZM88.387,61.813C87.86,61.813 87.373,61.725 86.924,61.55C86.482,61.374 86.099,61.128 85.774,60.809C85.455,60.484 85.205,60.097 85.023,59.649C84.841,59.2 84.75,58.706 84.75,58.167C84.75,57.627 84.841,57.133 85.023,56.685C85.205,56.236 85.455,55.853 85.774,55.534C86.099,55.209 86.482,54.959 86.924,54.783C87.373,54.608 87.86,54.52 88.387,54.52C88.913,54.52 89.398,54.608 89.84,54.783C90.288,54.959 90.672,55.209 90.99,55.534C91.315,55.853 91.569,56.236 91.751,56.685C91.933,57.133 92.024,57.627 92.024,58.167C92.024,58.706 91.933,59.2 91.751,59.649C91.569,60.097 91.315,60.484 90.99,60.809C90.672,61.128 90.288,61.374 89.84,61.55C89.398,61.725 88.913,61.813 88.387,61.813ZM88.387,60.156C88.653,60.156 88.897,60.11 89.118,60.019C89.339,59.922 89.531,59.785 89.693,59.61C89.856,59.434 89.983,59.226 90.074,58.986C90.165,58.739 90.21,58.466 90.21,58.167C90.21,57.868 90.165,57.598 90.074,57.358C89.983,57.111 89.856,56.899 89.693,56.724C89.531,56.548 89.339,56.415 89.118,56.324C88.897,56.227 88.653,56.178 88.387,56.178C88.127,56.178 87.883,56.227 87.656,56.324C87.435,56.415 87.243,56.548 87.08,56.724C86.918,56.899 86.791,57.111 86.7,57.358C86.609,57.598 86.564,57.868 86.564,58.167C86.564,58.466 86.609,58.739 86.7,58.986C86.791,59.226 86.918,59.434 87.08,59.61C87.243,59.785 87.435,59.922 87.656,60.019C87.883,60.11 88.127,60.156 88.387,60.156ZM96.36,56.529C97.023,56.529 97.513,56.682 97.832,56.987C98.157,57.292 98.319,57.722 98.319,58.274L98.319,61.667L96.584,61.667L96.584,58.645C96.584,58.365 96.503,58.17 96.34,58.06C96.184,57.949 96.002,57.894 95.794,57.894C95.677,57.894 95.56,57.91 95.443,57.943C95.326,57.969 95.219,58.017 95.121,58.089C95.03,58.16 94.952,58.258 94.887,58.381C94.822,58.505 94.78,58.661 94.761,58.849L94.761,61.667L93.025,61.667L93.025,56.626L94.663,56.626L94.731,57.163C94.92,56.961 95.151,56.805 95.424,56.695C95.697,56.584 96.009,56.529 96.36,56.529ZM99.533,61.667L99.533,54.355L101.268,54.355L101.268,61.667L99.533,61.667ZM103.385,56.139C103.119,56.139 102.891,56.048 102.703,55.866C102.521,55.684 102.43,55.46 102.43,55.193C102.43,54.933 102.521,54.712 102.703,54.53C102.891,54.348 103.119,54.257 103.385,54.257C103.515,54.257 103.636,54.283 103.746,54.335C103.857,54.381 103.954,54.446 104.039,54.53C104.13,54.615 104.198,54.715 104.243,54.832C104.295,54.943 104.321,55.063 104.321,55.193C104.321,55.323 104.295,55.447 104.243,55.564C104.198,55.681 104.13,55.781 104.039,55.866C103.954,55.95 103.857,56.019 103.746,56.071C103.636,56.116 103.515,56.139 103.385,56.139ZM102.508,61.667L102.508,56.626L104.243,56.626L104.243,61.667L102.508,61.667ZM108.818,56.529C109.481,56.529 109.972,56.682 110.29,56.987C110.615,57.292 110.778,57.722 110.778,58.274L110.778,61.667L109.042,61.667L109.042,58.645C109.042,58.365 108.961,58.17 108.798,58.06C108.642,57.949 108.46,57.894 108.252,57.894C108.135,57.894 108.018,57.91 107.901,57.943C107.784,57.969 107.677,58.017 107.58,58.089C107.489,58.16 107.411,58.258 107.346,58.381C107.281,58.505 107.238,58.661 107.219,58.849L107.219,61.667L105.483,61.667L105.483,56.626L107.121,56.626L107.19,57.163C107.378,56.961 107.609,56.805 107.882,56.695C108.155,56.584 108.467,56.529 108.818,56.529ZM117.09,59.493L113.483,59.493C113.522,59.805 113.642,60.039 113.844,60.195C114.045,60.344 114.286,60.419 114.565,60.419C114.78,60.419 114.962,60.377 115.111,60.292C115.267,60.208 115.381,60.071 115.452,59.883L117.051,60.088C116.895,60.634 116.596,61.05 116.154,61.336C115.712,61.621 115.186,61.765 114.575,61.765C114.139,61.765 113.749,61.706 113.405,61.589C113.06,61.472 112.765,61.303 112.518,61.082C112.277,60.855 112.092,60.582 111.962,60.263C111.832,59.938 111.767,59.568 111.767,59.152C111.767,58.736 111.832,58.365 111.962,58.04C112.098,57.715 112.287,57.442 112.527,57.221C112.768,56.993 113.057,56.821 113.395,56.704C113.733,56.587 114.107,56.529 114.516,56.529C114.887,56.529 115.228,56.578 115.54,56.675C115.859,56.773 116.132,56.925 116.359,57.133C116.593,57.341 116.775,57.608 116.905,57.933C117.042,58.251 117.11,58.638 117.11,59.093L117.09,59.493ZM114.526,57.796C114.26,57.796 114.045,57.848 113.883,57.952C113.72,58.056 113.603,58.222 113.532,58.45L115.404,58.45C115.352,58.242 115.248,58.082 115.092,57.972C114.936,57.855 114.747,57.796 114.526,57.796Z" style="fill:rgb(249,115,22);fill-rule:nonzero;"/>
</svg>
