<svg width="516" height="502" viewBox="0 0 516 502" fill="none" xmlns="http://www.w3.org/2000/svg">
<path d="M46.3292 375.525C66.6244 395.812 70.0335 427.023 65.7537 454.489C65.6434 455.113 64.6991 454.938 64.6991 454.364C64.6991 448.122 64.8831 441.88 64.8585 435.775C64.7482 435.488 64.6623 435.225 64.552 434.938C59.2544 431.018 54.3737 426.586 51.357 420.519C47.9725 413.727 46.6358 406.075 43.9993 398.983C43.754 398.309 44.4653 398.509 44.9313 398.859C57.28 408.122 61.2164 418.097 64.7604 431.43C64.6834 424.461 63.9649 417.514 62.6144 410.681C59.9411 398.022 54.668 385.488 45.7406 376.1C45.7036 376.06 45.6745 376.014 45.6551 375.963C45.6357 375.912 45.6262 375.858 45.6274 375.804C45.6285 375.749 45.6402 375.695 45.6617 375.646C45.6833 375.596 45.7142 375.551 45.7529 375.513C45.7915 375.475 45.8371 375.446 45.887 375.426C45.9369 375.406 45.9901 375.396 46.0436 375.398C46.0971 375.399 46.1499 375.411 46.1989 375.432C46.2479 375.454 46.2922 375.486 46.3292 375.525Z" fill="#263238"/>
<path d="M42.5157 377.884C39.0207 378.009 36.8257 383.689 34.1033 385.374C33.8173 385.61 33.486 385.781 33.1309 385.877C32.7757 385.974 32.4046 385.993 32.0416 385.935C31.6786 385.876 31.3317 385.74 31.0236 385.536C30.7154 385.332 30.4528 385.064 30.2527 384.75C27.5549 380.918 31.2583 376.198 34.741 373.514C32.2884 374.551 30.1914 376.386 27.5058 376.898C27.1628 377.014 26.7989 377.055 26.4392 377.015C26.0795 376.976 25.7324 376.858 25.4215 376.67C25.1107 376.481 24.8435 376.227 24.6381 375.923C24.4327 375.62 24.2941 375.275 24.2316 374.913C23.0053 369.694 29.4924 367.422 33.9071 367.26C31.7611 365.737 25.6296 361.617 28.8915 359.594C32.1535 357.572 39.3886 363.452 41.7431 365.387C45.189 368.246 49.3093 372.503 49.4687 376.96C49.665 382.178 45.2013 378.982 42.5157 377.884Z" fill="#006DB6"/>
<path opacity="0.1" d="M42.5157 377.884C39.0207 378.009 36.8257 383.689 34.1033 385.374C33.8173 385.61 33.486 385.781 33.1309 385.877C32.7757 385.974 32.4046 385.993 32.0416 385.935C31.6786 385.876 31.3317 385.74 31.0236 385.536C30.7154 385.332 30.4528 385.064 30.2527 384.75C27.5549 380.918 31.2583 376.198 34.741 373.514C32.2884 374.551 30.1914 376.386 27.5058 376.898C27.1628 377.014 26.7989 377.055 26.4392 377.015C26.0795 376.976 25.7324 376.858 25.4215 376.67C25.1107 376.481 24.8435 376.227 24.6381 375.923C24.4327 375.62 24.2941 375.275 24.2316 374.913C23.0053 369.694 29.4924 367.422 33.9071 367.26C31.7611 365.737 25.6296 361.617 28.8915 359.594C32.1535 357.572 39.3886 363.452 41.7431 365.387C45.189 368.246 49.3093 372.503 49.4687 376.96C49.665 382.178 45.2013 378.982 42.5157 377.884Z" fill="#090A0A"/>
<path d="M43.5218 378.758C39.0581 376.698 30.4863 379.669 29.7505 377.947C28.279 374.451 35.1217 372.042 38.8251 371.58C35.416 370.643 28.8921 369.145 29.0883 365.799C29.3336 361.717 39.1071 365.225 44.0491 369.083C50.2787 373.952 50.1806 378.646 49.1995 379.582C47.8015 380.83 44.2576 379.108 43.5218 378.758Z" fill="#006DB6"/>
<path d="M92.5478 373.527C71.5046 392.953 66.9305 424.089 70.1802 451.654C70.2783 452.278 71.2225 452.141 71.2471 451.567C71.4801 445.324 71.5291 439.082 71.7744 432.977C71.897 432.703 71.9951 432.441 72.1177 432.166C77.5625 428.421 82.5903 424.213 85.8399 418.258C89.5188 411.604 91.0885 404.014 93.9457 397.035C94.2155 396.361 93.492 396.536 93.0138 396.86C80.3339 405.599 76.0296 415.462 71.9951 428.645C72.3264 421.68 73.3036 414.762 74.9137 407.984C78.053 395.499 83.792 383.127 93.0628 374.089C93.4062 373.752 92.9157 373.177 92.5478 373.527Z" fill="#263238"/>
<path d="M96.2773 376.024C99.76 376.286 101.734 382.041 104.383 383.814C104.659 384.063 104.984 384.249 105.336 384.361C105.688 384.472 106.059 384.507 106.425 384.462C106.791 384.417 107.144 384.294 107.46 384.101C107.776 383.907 108.048 383.648 108.258 383.34C111.103 379.594 107.584 374.751 104.199 371.979C106.652 373.115 108.638 375.025 111.299 375.637C111.638 375.767 112.001 375.822 112.362 375.796C112.723 375.771 113.075 375.666 113.393 375.49C113.711 375.313 113.988 375.068 114.204 374.773C114.42 374.477 114.572 374.137 114.647 373.777C116.021 368.608 109.742 366.036 105.266 365.749C107.461 364.326 113.752 360.443 110.564 358.259C107.375 356.074 99.9317 361.704 97.5036 363.552C93.9474 366.261 89.6799 370.356 89.361 374.788C88.9563 380.044 93.5427 377.01 96.2773 376.024Z" fill="#006DB6"/>
<path opacity="0.1" d="M96.2773 376.024C99.76 376.286 101.734 382.041 104.383 383.814C104.659 384.063 104.984 384.249 105.336 384.361C105.688 384.472 106.059 384.507 106.425 384.462C106.791 384.417 107.144 384.294 107.46 384.101C107.776 383.907 108.048 383.648 108.258 383.34C111.103 379.594 107.584 374.751 104.199 371.979C106.652 373.115 108.638 375.025 111.299 375.637C111.638 375.767 112.001 375.822 112.362 375.796C112.723 375.771 113.075 375.666 113.393 375.49C113.711 375.313 113.988 375.068 114.204 374.773C114.42 374.477 114.572 374.137 114.647 373.777C116.021 368.608 109.742 366.036 105.266 365.749C107.461 364.326 113.752 360.443 110.564 358.259C107.375 356.074 99.9317 361.704 97.5036 363.552C93.9474 366.261 89.6799 370.356 89.361 374.788C88.9563 380.044 93.5427 377.01 96.2773 376.024Z" fill="#090A0A"/>
<path d="M95.2338 376.861C99.771 374.976 108.22 378.272 109.017 376.587C110.624 373.141 103.867 370.482 100.188 369.87C103.634 369.071 110.207 367.823 110.133 364.477C110.035 360.382 100.151 363.515 95.0621 367.173C88.6608 371.793 88.5259 376.487 89.5192 377.46C90.8804 378.809 94.4735 377.173 95.2338 376.861Z" fill="#006DB6"/>
<path d="M71.0998 424.839C69.6729 435.231 67.4882 445.501 64.5637 455.563C64.523 455.761 64.4065 455.935 64.2398 456.047C64.0731 456.158 63.8698 456.197 63.6746 456.156C63.4795 456.114 63.3085 455.996 63.1993 455.826C63.09 455.656 63.0515 455.449 63.0921 455.251C64.4778 445.787 66.9917 436.524 68.3775 427.024C69.8844 417.446 70.4268 407.737 69.9962 398.047C69.101 382.105 64.8457 365.126 54.6307 352.654C54.3977 352.355 54.876 351.93 55.109 352.205C75.5758 376.512 72.2771 406.299 72.2771 408.971C75.1834 398.909 78.1633 387.386 89.1263 377.136C89.6046 376.699 89.9725 376.911 89.8867 377.66C87.9246 396.312 82.8355 406.062 72.2035 416.037C71.8724 418.984 71.4922 421.93 71.0998 424.839Z" fill="#263238"/>
<path d="M54.3742 355.438C50.6953 353.778 45.6185 358.547 41.9764 358.884C40.0511 359.059 38.6164 358.284 38.2975 356.262C37.3901 350.906 43.5706 347.897 48.488 346.936C45.3855 346.736 42.3566 347.585 39.3031 346.749C38.8857 346.698 38.4841 346.556 38.1259 346.332C37.7677 346.108 37.4615 345.808 37.2284 345.452C36.9952 345.096 36.8407 344.693 36.7755 344.27C36.7102 343.847 36.7358 343.415 36.8505 343.004C38.1994 336.986 46.0354 337.873 50.6708 340.02C49.1993 337.348 44.8705 329.933 49.2483 329.496C53.6262 329.059 58.2371 338.884 59.7209 342.105C61.8914 346.824 64.0497 353.341 62.014 358.06C59.6841 363.565 56.6306 357.947 54.3742 355.438Z" fill="#006DB6"/>
<path opacity="0.1" d="M54.3742 355.438C50.6953 353.778 45.6185 358.547 41.9764 358.884C40.0511 359.059 38.6164 358.284 38.2975 356.262C37.3901 350.906 43.5706 347.897 48.488 346.936C45.3855 346.736 42.3566 347.585 39.3031 346.749C38.8857 346.698 38.4841 346.556 38.1259 346.332C37.7677 346.108 37.4615 345.808 37.2284 345.452C36.9952 345.096 36.8407 344.693 36.7755 344.27C36.7102 343.847 36.7358 343.415 36.8505 343.004C38.1994 336.986 46.0354 337.873 50.6708 340.02C49.1993 337.348 44.8705 329.933 49.2483 329.496C53.6262 329.059 58.2371 338.884 59.7209 342.105C61.8914 346.824 64.0497 353.341 62.014 358.06C59.6841 363.565 56.6306 357.947 54.3742 355.438Z" fill="#090A0A"/>
<path d="M54.9999 356.873C51.321 352.441 41.0202 351.131 41.106 348.971C41.3022 344.576 49.6042 345.6 53.6755 347.011C50.6098 344.289 44.5764 339.395 46.4281 336.025C48.709 331.917 57.1091 340.569 60.322 347.098C64.3811 355.338 62.0266 360.182 60.4937 360.631C58.3845 361.243 55.5885 357.598 54.9999 356.873Z" fill="#006DB6"/>
<path d="M84.5042 430.457L93.5297 500.681H38.5918C39.72 494.439 49.9473 430.369 49.9473 430.369L84.5042 430.457Z" fill="#006DB6"/>
<path d="M176.562 212.192C175.378 208.006 173.544 204.04 171.129 200.444C168.622 196.888 165.703 193.652 162.435 190.806C149.399 179.258 131.434 174.789 114.45 175.975C106.691 176.452 99.0841 178.378 92.0089 181.655C88.5611 183.292 85.3642 185.428 82.5174 187.997C79.8808 190.382 76.9132 193.316 75.6869 196.736C75.6477 196.86 75.6487 196.992 75.6897 197.115C75.7307 197.237 75.8096 197.343 75.9144 197.416C76.0193 197.489 76.1446 197.525 76.2716 197.52C76.3986 197.515 76.5204 197.467 76.6189 197.386C78.1763 196.137 79.4884 194.564 80.9722 193.191C82.4691 191.829 84.0591 190.578 85.7302 189.446C89.0131 187.246 92.5052 185.389 96.1537 183.903C110.734 177.91 128.037 178.06 142.753 183.478C149.889 186.13 156.476 190.114 162.177 195.226C164.863 197.642 167.326 200.304 169.535 203.178C171.903 206.097 174.086 209.166 176.071 212.367C176.292 212.542 176.672 212.467 176.562 212.192Z" fill="#263238"/>
<path d="M165.807 188.572C164.334 186.177 162.482 184.047 160.326 182.267C158.068 180.579 155.681 179.076 153.189 177.773C144.061 172.759 134.067 169.589 123.758 168.435C118.784 167.877 113.754 168.13 108.858 169.184C106.538 169.712 104.249 170.375 102.003 171.169C99.7158 171.856 97.5418 172.887 95.5529 174.227C95.5062 174.272 95.4746 174.331 95.4625 174.395C95.4504 174.46 95.4585 174.526 95.4856 174.586C95.5127 174.645 95.5575 174.694 95.6136 174.726C95.6697 174.758 95.7343 174.772 95.7982 174.764C98.4224 174.215 100.936 173.229 103.573 172.717C106.209 172.205 108.674 172.105 111.249 171.855C141.379 169.009 163.171 187.973 165.304 189.109C165.377 189.161 165.465 189.186 165.553 189.177C165.641 189.169 165.724 189.128 165.785 189.063C165.846 188.997 165.882 188.912 165.886 188.822C165.89 188.731 165.862 188.643 165.807 188.572Z" fill="#263238"/>
<path d="M61.5597 285.663C67.6912 289.695 74.9508 286.749 79.7579 282.017C84.7612 277.098 88.1703 270.657 90.7945 264.177C93.2471 258.26 94.9762 252.08 96.926 245.975C98.8758 239.87 100.605 233.491 103.695 227.91C106.587 222.573 111.437 218.619 117.184 216.911C123.412 215.205 130.032 215.812 135.861 218.622C138.948 220.008 141.748 221.978 144.114 224.427C146.28 226.823 147.967 229.626 149.08 232.679C151.668 239.271 152.968 246.287 154.537 253.166C155.825 258.859 158.498 263.99 163.734 266.799C168.198 269.196 173.692 269.92 178.229 267.336C178.297 267.303 178.35 267.246 178.379 267.175C178.408 267.105 178.411 267.026 178.387 266.954C178.363 266.881 178.313 266.821 178.248 266.783C178.183 266.745 178.106 266.733 178.033 266.749C175.175 267.315 172.228 267.202 169.42 266.418C166.612 265.634 164.02 264.201 161.846 262.23C159.605 259.92 158.053 257.011 157.37 253.84C156.389 250.095 155.653 246.237 154.648 242.467C152.98 236.225 151.324 229.396 147.29 224.202C143.181 219.171 137.641 215.56 131.434 213.865C125.458 212.095 119.076 212.376 113.272 214.664C107.502 217.094 102.796 221.575 100.029 227.273C94.2404 238.509 92.3764 251.318 87.9127 263.079C85.8586 268.917 82.7935 274.333 78.8627 279.071C74.7791 283.715 68.2185 287.161 62.1115 284.577C61.9707 284.508 61.8093 284.498 61.6614 284.549C61.5135 284.599 61.3908 284.707 61.3191 284.848C61.2474 284.989 61.2325 285.153 61.2774 285.305C61.3223 285.457 61.4235 285.585 61.5597 285.663Z" fill="#263238"/>
<path d="M60.224 265.975C63.0445 266.362 65.632 264.202 66.9441 261.83C68.7278 258.417 70.0951 254.795 71.0154 251.044C72.9582 243.284 75.4164 235.668 78.3731 228.247C83.2783 216.624 90.9181 205.413 101.918 198.971C107.368 195.74 113.447 193.761 119.727 193.172C126.008 192.584 132.339 193.4 138.278 195.563C143.932 197.663 149.1 200.927 153.459 205.151C157.945 209.645 161.556 214.96 164.103 220.819C166.649 226.892 168.739 233.152 170.357 239.546C171.081 242.105 172.099 245.213 174.527 246.599C175.432 247.177 176.51 247.409 177.568 247.253C178.625 247.098 179.595 246.565 180.303 245.75C180.438 245.588 180.217 245.413 180.07 245.513C179.382 245.978 178.56 246.194 177.737 246.126C176.914 246.058 176.138 245.71 175.532 245.139C174.222 244.006 173.352 242.434 173.08 240.707C172.258 237.261 171.596 233.79 170.627 230.357C168.815 223.382 165.957 216.732 162.154 210.644C158.727 205.421 154.32 200.939 149.186 197.457C144.051 193.975 138.291 191.561 132.237 190.354C126.182 189.147 119.953 189.172 113.908 190.426C107.863 191.68 102.121 194.138 97.0128 197.661C86.4176 204.976 79.2438 216.25 74.4981 228.147C72.0453 234.668 69.9974 241.34 68.3666 248.122C67.5573 251.552 66.5583 254.932 65.3744 258.247C64.8204 259.7 64.1647 261.11 63.4124 262.467C63.1415 263.091 62.7125 263.63 62.1695 264.029C61.6264 264.428 60.9888 264.673 60.3221 264.739C60.1611 264.726 60.0016 264.778 59.8785 264.885C59.7555 264.991 59.6791 265.143 59.666 265.307C59.653 265.471 59.7045 265.633 59.8091 265.759C59.9138 265.884 60.063 265.962 60.224 265.975Z" fill="#263238"/>
<path d="M63.6454 291.055C63.6272 291.194 63.6614 291.334 63.7411 291.448C63.8209 291.561 63.9401 291.64 64.0746 291.667C65.0701 291.908 66.083 292.066 67.1036 292.142C67.5611 292.167 68.0195 292.167 68.477 292.142C73.885 291.867 79.5137 288.746 85.1791 282.866C89.9683 277.89 93.9133 272.14 96.8534 265.85C99.1718 260.46 100.955 254.847 102.176 249.096C102.568 247.485 102.973 245.862 103.402 244.264C104.739 239.146 107.167 231.78 112.648 227.136C114.498 225.566 116.671 224.44 119.005 223.839C121.34 223.238 123.777 223.179 126.137 223.665C129.802 224.422 133.274 225.937 136.339 228.117C139.404 230.296 141.997 233.094 143.955 236.337C147.027 241.549 148.134 247.721 147.07 253.702C145.767 260.167 142.683 266.121 138.18 270.868C133.49 275.782 127.931 279.75 121.796 282.566C119.197 283.815 115.751 285.475 112.219 286.798L110.196 287.56C107.62 288.521 104.972 289.495 102.433 290.631C102.269 290.712 102.138 290.851 102.066 291.021C101.994 291.192 101.984 291.384 102.039 291.561C102.094 291.738 102.21 291.89 102.366 291.987C102.522 292.085 102.707 292.122 102.887 292.092C104.665 291.705 106.419 291.205 108.05 290.718C119.883 287.26 134.623 281.667 143.612 269.046C147.674 263.576 150.032 256.992 150.381 250.144C150.542 243.862 148.624 237.706 144.936 232.666C140.296 226.173 133.348 221.783 125.573 220.431C123.015 220.003 120.397 220.114 117.882 220.758C115.368 221.403 113.01 222.566 110.956 224.177C106.419 227.76 103.083 233.465 100.765 241.655C100.128 243.877 99.539 246.149 99.0117 248.346C97.8419 253.664 96.2001 258.862 94.1066 263.877C91.1444 270.417 87.0532 276.362 82.0276 281.43C77.9195 285.55 71.5182 290.456 64.3199 290.469C64.1546 290.458 63.9919 290.514 63.866 290.623C63.7401 290.733 63.661 290.888 63.6454 291.055Z" fill="#263238"/>
<path d="M61.291 273.177C62.8213 273.528 64.4113 273.508 65.9324 273.118C67.4534 272.727 68.8629 271.978 70.0467 270.93C72.7323 268.745 74.118 265.112 75.2217 261.891C77.7846 254.401 79.7712 246.66 82.3219 239.132C86.2828 227.397 92.1323 215.412 102.519 208.346C107.19 205.22 112.463 203.147 117.985 202.264C123.507 201.381 129.15 201.71 134.537 203.227C140.501 204.946 145.906 208.251 150.197 212.803C154.132 217.244 157.252 222.369 159.407 227.934C160.547 230.73 161.528 233.577 162.399 236.473C163.195 239.538 164.145 242.559 165.244 245.524C167.255 250.443 172.32 256.348 178.157 253.914C178.251 253.867 178.328 253.79 178.376 253.695C178.423 253.599 178.438 253.49 178.419 253.385C178.399 253.28 178.346 253.184 178.268 253.113C178.189 253.041 178.09 252.998 177.985 252.99C176.359 252.836 174.786 252.324 173.374 251.49C171.961 250.656 170.744 249.519 169.806 248.159C167.733 245.187 166.936 241.517 165.992 238.059C164.34 231.599 161.901 225.376 158.732 219.532C155.908 214.362 152.062 209.844 147.438 206.261C142.433 202.578 136.657 200.125 130.564 199.095C124.988 198.168 119.287 198.386 113.795 199.734C108.302 201.083 103.13 203.535 98.5826 206.948C88.4902 214.626 82.7389 226.661 78.8025 238.533C76.5829 245.2 74.8661 252.004 72.8304 258.72C71.2853 263.839 68.5506 272.453 61.6834 271.317C61.457 271.302 61.2327 271.37 61.0516 271.509C60.8704 271.648 60.7445 271.849 60.6968 272.074C60.6492 272.3 60.683 272.536 60.7921 272.738C60.9012 272.941 61.0783 273.097 61.291 273.177Z" fill="#263238"/>
<path d="M60.7877 278.071C61.5945 278.997 62.5687 279.756 63.6573 280.306C65.9136 281.455 69.2124 281.08 71.4688 280.156C74.2417 278.864 76.5699 276.755 78.1521 274.101C79.8815 271.264 81.3432 268.267 82.5177 265.15C83.9279 261.692 85.1542 258.134 86.356 254.588C88.8085 247.46 91.0036 240.269 93.7137 233.228C96.0682 226.985 98.999 221.03 103.929 216.486C108.318 212.386 113.767 209.65 119.633 208.599C125.5 207.548 131.539 208.227 137.039 210.556C142.68 212.969 147.479 217.053 150.81 222.279C154.489 227.984 156.157 234.638 157.775 241.143C159.222 246.935 160.387 253.19 164.029 258.046C167.058 262.104 173.509 265.312 177.764 261.093C177.809 261.053 177.838 260.998 177.846 260.938C177.853 260.877 177.84 260.816 177.807 260.766C177.773 260.716 177.724 260.679 177.666 260.663C177.609 260.648 177.547 260.654 177.494 260.681C174.453 262.216 170.884 261.167 168.346 259.07C166.008 256.985 164.256 254.305 163.269 251.305C160.755 244.676 159.762 237.572 157.456 230.818C155.57 224.831 152.278 219.402 147.867 215C143.631 210.881 138.47 207.881 132.832 206.261C127.112 204.751 121.105 204.774 115.395 206.327C109.686 207.881 104.468 210.912 100.25 215.125C95.5777 219.907 92.6468 225.937 90.2801 232.166C87.7049 238.995 85.6202 246.011 83.2902 252.94C82.0639 256.486 80.8376 260.006 79.4764 263.515C78.4414 266.537 77.1488 269.461 75.6136 272.254C74.1988 274.855 71.9844 276.912 69.3105 278.109C68.065 278.67 66.6953 278.883 65.342 278.728C63.9886 278.572 62.7004 278.052 61.6094 277.222C61.0453 276.785 60.3708 277.597 60.7877 278.071Z" fill="#263238"/>
<path d="M179.212 242.041C179.304 240.42 179.304 238.794 179.212 237.173C177.937 223.789 172.329 211.216 163.27 201.43C154.879 192.174 143.701 186.024 131.497 183.952C119.506 182.09 107.242 184.007 96.3513 189.445C85.5147 194.892 76.5939 203.612 70.8076 214.414C64.8561 225.062 62.1698 237.279 63.0943 249.495C63.0943 249.757 63.5112 249.707 63.5235 249.495C64.3 236.312 68.5023 223.577 75.7005 212.591C82.1033 203.004 91.1119 195.525 101.624 191.068C112.114 186.687 123.675 185.702 134.734 188.246C146.126 191.126 156.272 197.736 163.614 207.06C167.489 212.005 170.614 217.514 172.884 223.402C175.127 229.495 176.903 235.756 178.194 242.129C178.378 242.603 179.175 242.603 179.212 242.041Z" fill="#263238"/>
<path d="M160.486 287.073C161.835 285.051 164.729 286.836 166.225 287.685C168.469 288.934 170.885 290.644 173.583 290.182C173.626 290.167 173.674 290.171 173.716 290.192C173.757 290.213 173.789 290.25 173.803 290.294C173.818 290.339 173.814 290.388 173.794 290.43C173.773 290.472 173.737 290.504 173.693 290.519C172.818 290.96 171.857 291.195 170.881 291.208C169.905 291.221 168.938 291.011 168.052 290.594C167.097 290.195 166.164 289.745 165.256 289.246C164.396 288.74 163.477 288.346 162.521 288.072C162.346 288.048 162.169 288.048 161.994 288.072C161.81 288.072 161.859 288.072 161.835 288.135C161.663 288.459 161.933 289.146 162.031 289.471C162.258 290.314 162.574 291.131 162.975 291.905C163.827 293.498 164.905 294.953 166.176 296.225C166.89 296.969 167.648 297.669 168.444 298.322C169.254 298.984 170.21 299.483 170.983 300.182C171.046 300.217 171.093 300.276 171.114 300.346C171.135 300.416 171.127 300.492 171.093 300.557C171.059 300.621 171.001 300.669 170.932 300.69C170.863 300.711 170.789 300.704 170.725 300.669C169.792 300.374 168.901 299.954 168.076 299.421C167.214 298.906 166.394 298.322 165.624 297.673C164.068 296.369 162.759 294.786 161.761 293.004C161.26 292.116 160.849 291.179 160.535 290.207C160.286 289.725 160.152 289.191 160.143 288.646C160.134 288.102 160.252 287.563 160.486 287.073Z" fill="#263238"/>
<path d="M164.594 290.942C166.057 291.625 167.423 292.507 168.653 293.564C169.201 294.03 169.765 294.467 170.345 294.875C170.627 295.075 170.934 295.262 171.228 295.437C171.53 295.594 171.841 295.732 172.16 295.849C172.221 295.867 172.274 295.905 172.312 295.957C172.35 296.009 172.37 296.071 172.37 296.136C172.37 296.2 172.35 296.263 172.312 296.315C172.274 296.367 172.221 296.405 172.16 296.423C170.701 296.785 169.168 295.811 168.064 294.962C166.672 293.934 165.433 292.706 164.385 291.317C164.214 291.192 164.361 290.942 164.594 290.942Z" fill="#263238"/>
<path d="M68.7349 295.525C68.729 295.554 68.729 295.584 68.7349 295.613C68.7433 295.714 68.7836 295.811 68.8499 295.887C68.9161 295.963 69.0048 296.016 69.1028 296.037C69.4643 296.132 69.8339 296.19 70.2065 296.212C71.5028 296.233 72.7953 296.065 74.0448 295.713C75.7942 295.29 77.4957 294.684 79.1216 293.902C82.3 292.338 85.2406 290.315 87.8529 287.897C96.7435 279.982 102.998 268.709 106.443 254.364C106.664 253.416 106.897 252.454 107.118 251.506C108.344 246.325 109.571 240.981 112.391 236.524C113.874 234.168 115.893 232.211 118.277 230.819C120.761 229.55 123.521 228.949 126.297 229.071C126.44 229.065 126.577 229.01 126.686 228.916C126.796 228.823 126.872 228.695 126.903 228.552C126.933 228.41 126.917 228.261 126.856 228.13C126.796 227.998 126.694 227.89 126.567 227.823C123.391 226.237 119.442 227.735 117.897 228.447C115.157 229.771 112.756 231.724 110.883 234.152C107.204 238.784 105.83 244.727 104.506 250.469L104.163 251.905C102.748 258.393 100.561 264.682 97.6509 270.632C94.6591 276.471 90.6493 281.708 85.8172 286.087C83.4781 288.273 80.8735 290.144 78.067 291.655C76.6257 292.392 75.1339 293.022 73.6033 293.54C73.0883 293.715 72.561 293.852 72.0337 294.002C70.9972 294.249 69.99 294.609 69.0292 295.076C68.9447 295.117 68.8727 295.18 68.8209 295.259C68.769 295.338 68.7393 295.43 68.7349 295.525Z" fill="#263238"/>
<path d="M99.502 288.447C99.4949 288.543 99.514 288.639 99.5573 288.725C99.6006 288.811 99.6663 288.883 99.7473 288.934C99.8189 288.986 99.9041 289.017 99.9925 289.021C100.082 289.025 100.171 289.005 100.25 288.964C100.33 288.922 100.397 288.86 100.446 288.784C101.521 287.433 102.937 286.406 104.542 285.813C105.989 285.126 107.497 284.564 108.957 283.952L109.619 283.678C113.629 282.08 116.891 280.656 119.883 279.196C133.151 272.716 141.061 264.327 143.428 254.227C144.772 248.841 144.108 243.139 141.564 238.222C140.409 235.882 138.788 233.813 136.803 232.147C134.818 230.481 132.513 229.255 130.037 228.547C129.89 228.508 129.735 228.525 129.6 228.594C129.465 228.662 129.358 228.779 129.301 228.921C129.243 229.052 129.234 229.199 129.277 229.336C129.32 229.472 129.412 229.587 129.534 229.658C134.287 232.46 138.001 236.777 140.105 241.943C142.79 249.183 141.49 261.019 128.958 270.594C124.271 273.964 119.223 276.778 113.911 278.984C111.262 280.17 108.27 281.48 105.4 283.066C104.212 283.674 103.079 284.388 102.016 285.201C101.038 286.042 100.209 287.047 99.5633 288.172C99.5145 288.255 99.493 288.351 99.502 288.447Z" fill="#263238"/>
<path d="M64.8112 298.059C66.6136 299.162 68.658 299.788 70.7587 299.882C74.6047 299.941 78.4024 299.005 81.7954 297.16C86.8427 294.444 91.4199 290.906 95.3459 286.686C95.7261 286.286 96.0817 285.874 96.4496 285.437L96.7807 285.075C96.8686 285.033 96.9477 284.974 97.0137 284.901C100.116 281.755 104.371 280.007 108.455 278.309C109.878 277.722 111.361 277.06 112.747 276.461C119.602 273.215 124.274 269.994 127.879 265.999C131.535 262.143 133.841 257.167 134.44 251.842C134.869 247.223 133.802 240.781 129.425 237.785C125.047 234.788 119.504 236.923 116.254 240.531C112.477 244.738 110.552 250.681 108.995 255.512L108.455 257.198C107.038 262.026 105.225 266.724 103.035 271.243C100.613 275.911 97.5808 280.224 94.0215 284.064C90.4813 287.883 86.4465 291.192 82.0284 293.902C76.2158 297.435 70.5503 298.509 65.2159 297.135H65.1178C65.0068 297.131 64.8971 297.161 64.803 297.221C64.7089 297.281 64.6348 297.369 64.5905 297.472C64.5557 297.581 64.5587 297.699 64.5988 297.806C64.639 297.912 64.714 298.002 64.8112 298.059ZM101.968 278.459C102.851 277.21 103.623 275.962 104.31 274.713C106.87 270.082 108.926 265.18 110.442 260.094C110.699 259.283 110.944 258.471 111.214 257.597C112.624 253.053 114.084 248.346 116.671 244.376C117.91 242.256 119.765 240.581 121.981 239.582C122.991 239.178 124.073 238.995 125.157 239.046C126.452 239.095 127.687 239.613 128.64 240.506C132.319 244.002 132.552 250.406 131.092 255.2C129.431 260.015 126.395 264.214 122.373 267.26C117.824 270.943 112.44 273.403 107.658 275.575L107.204 275.775C105.5 276.686 103.672 277.522 101.968 278.459Z" fill="#263238"/>
<path d="M109.95 270.145C109.92 270.255 109.923 270.372 109.958 270.48C109.993 270.589 110.058 270.685 110.146 270.756C110.236 270.832 110.348 270.876 110.465 270.881C110.543 270.886 110.621 270.873 110.693 270.843C110.765 270.812 110.83 270.766 110.882 270.706C111.152 270.432 113.138 268.984 114.095 268.322C114.401 268.11 114.72 267.91 115.027 267.685C115.677 267.248 116.351 266.799 116.989 266.299C118.901 264.826 120.697 263.202 122.36 261.443C125.573 258.01 127.081 254.577 126.811 251.218C126.807 250.39 126.575 249.579 126.141 248.877C125.708 248.176 125.091 247.611 124.359 247.248C123.468 246.944 122.506 246.937 121.611 247.226C120.716 247.516 119.935 248.087 119.38 248.859C118.264 250.372 117.395 252.058 116.805 253.853C116.241 255.301 115.738 256.811 115.235 258.26L114.831 259.433C113.451 262.927 111.841 266.322 110.011 269.595C109.953 269.673 109.917 269.765 109.906 269.861C109.895 269.958 109.91 270.056 109.95 270.145ZM116.216 261.505C117.374 258.428 118.734 255.433 120.288 252.542L120.361 252.417C120.778 251.668 121.771 249.92 122.728 249.72H122.936C123.138 249.738 123.33 249.816 123.488 249.945C124.322 250.607 124.199 252.442 123.807 253.828C122.9 257.148 120.128 259.833 117.97 261.992L116.253 263.665C115.664 264.227 115.088 264.801 114.512 265.376C115.247 263.99 115.775 262.629 116.216 261.505Z" fill="#263238"/>
<path d="M117.701 326.474C115.583 330.757 113.684 335.149 112.011 339.632C112.007 339.661 112.012 339.691 112.026 339.717C112.039 339.743 112.061 339.763 112.087 339.776C112.113 339.788 112.142 339.792 112.171 339.787C112.199 339.781 112.225 339.766 112.244 339.744C114.635 336.124 116.622 332.254 118.866 328.509C120.338 326.099 122.999 320.469 126.592 321.38C128.1 321.755 129.179 323.452 130.013 324.663C131.106 326.338 132.294 327.947 133.569 329.482C135.531 331.755 139.21 334.726 142.423 333.927C142.57 333.927 142.656 333.652 142.509 333.577C141.651 333.115 140.743 332.828 139.897 332.329C138.964 331.793 138.1 331.143 137.322 330.394C135.821 328.835 134.497 327.109 133.373 325.25C131.534 322.354 129.388 318.534 125.39 319.008C121.687 319.445 119.16 323.402 117.701 326.474Z" fill="#263238"/>
<path d="M64.6384 301.293C68.5258 306.499 75.4789 305.576 80.5067 302.804C83.404 301.09 86.1382 299.105 88.6738 296.874C91.356 294.571 94.2279 292.508 97.2578 290.707C97.2952 290.695 97.3266 290.669 97.345 290.634C97.3634 290.599 97.3673 290.558 97.3559 290.519C97.3446 290.481 97.3188 290.449 97.2843 290.431C97.2498 290.412 97.2094 290.408 97.172 290.42C90.9547 291.431 86.4665 296.662 81.4019 299.958C76.6438 303.079 69.7398 304.951 64.8346 301.006C64.712 300.857 64.5158 301.131 64.6384 301.293Z" fill="#263238"/>
<path d="M165.882 311.156C166.275 311.156 166.434 310.556 166.029 310.456C159.751 308.871 154.796 304.077 151.755 298.372C149.005 293.171 147.417 287.416 147.108 281.518C146.824 277.082 147.468 272.635 148.996 268.472C149.4 267.082 150.104 265.803 151.056 264.726C151.272 264.448 151.544 264.219 151.853 264.056C152.163 263.892 152.503 263.798 152.851 263.779C153.199 263.76 153.548 263.817 153.872 263.946C154.197 264.075 154.491 264.273 154.735 264.527C155.406 265.475 156.008 266.473 156.538 267.51C157.981 269.714 159.903 271.551 162.154 272.879C164.394 274.205 166.922 274.947 169.512 275.038C172.262 275.111 174.976 274.397 177.348 272.978C177.507 272.879 177.434 272.566 177.238 272.629C173.969 273.645 170.479 273.654 167.205 272.654C163.932 271.654 161.023 269.691 158.843 267.011C157.347 265.051 156.538 262.017 153.681 261.792C150.823 261.568 148.837 263.89 147.708 266.299C145.197 272.074 144.371 278.462 145.329 284.701C146.838 295.7 153.337 310.569 165.882 311.156Z" fill="#263238"/>
<path d="M120.509 335.488C120.115 336.626 119.936 337.829 119.981 339.034C119.991 339.07 120.009 339.102 120.036 339.128C120.062 339.154 120.095 339.172 120.13 339.179C120.166 339.187 120.203 339.185 120.237 339.172C120.272 339.16 120.302 339.138 120.325 339.109C120.894 338.201 121.328 337.212 121.612 336.175C121.993 335.101 122.385 334.027 122.839 332.979C123.286 331.925 123.811 330.906 124.408 329.933C124.605 329.504 124.87 329.112 125.193 328.772L125.279 328.709L125.475 328.909C125.66 329.088 125.832 329.28 125.99 329.483C127.235 331.225 128.578 332.893 130.013 334.477C131.239 335.638 133.189 336.899 134.918 336.499C134.941 336.488 134.961 336.471 134.975 336.449C134.989 336.427 134.996 336.401 134.996 336.375C134.996 336.348 134.989 336.322 134.975 336.3C134.961 336.278 134.941 336.261 134.918 336.25C133.933 335.736 133.022 335.089 132.208 334.327C131.449 333.527 130.763 332.658 130.16 331.73C129.461 330.757 128.835 329.72 128.075 328.784C127.315 327.848 126.469 326.637 125.254 326.637C124.04 326.637 123.464 327.748 122.986 328.634C122.404 329.692 121.911 330.799 121.514 331.943C121.183 333.116 120.815 334.29 120.509 335.488Z" fill="#263238"/>
<path d="M168.812 304.426C168.859 304.441 168.91 304.438 168.955 304.419C169.001 304.399 169.038 304.363 169.06 304.318C169.082 304.273 169.088 304.222 169.076 304.173C169.064 304.124 169.036 304.081 168.996 304.052C167.489 302.757 166.094 301.333 164.826 299.795C163.619 298.192 162.498 296.525 161.466 294.801C159.413 291.831 157.655 288.661 156.218 285.338C155.476 283.724 155.091 281.964 155.09 280.182C155.323 277.685 157.788 279.507 158.854 280.444C160.041 281.627 161.312 282.72 162.656 283.715C165.326 285.464 168.495 286.251 171.657 285.949C173.177 285.674 174.641 285.137 175.986 284.364C176.292 284.227 176.072 283.802 175.765 283.902C174.562 284.202 173.323 284.32 172.086 284.252C171.069 284.271 170.052 284.208 169.045 284.064C166.95 283.731 164.958 282.916 163.22 281.68C161.135 280.169 157.309 275.1 154.391 277.547C151.865 279.657 153.814 284.564 154.832 286.961C156.517 290.599 158.572 294.047 160.964 297.248C162.926 299.994 165.525 303.278 168.812 304.426Z" fill="#263238"/>
<path d="M72.4618 313.977C75.1345 314.518 77.9094 314.043 80.261 312.641C80.7638 312.366 81.2298 312.054 81.7203 311.742C81.4628 312.042 81.2175 312.329 80.9845 312.628C79.3 314.723 78.2441 317.267 77.9433 319.957C77.9424 319.993 77.9529 320.029 77.9733 320.06C77.9936 320.09 78.0229 320.113 78.0568 320.125C78.0907 320.138 78.1276 320.139 78.1623 320.129C78.1969 320.119 78.2276 320.098 78.2499 320.069C79.6233 317.934 81.0336 315.787 82.6032 313.827C84.1729 311.867 86.0001 309.932 87.5084 307.872C87.5669 307.781 87.5981 307.674 87.5982 307.565C87.5982 307.456 87.567 307.349 87.5085 307.258C87.45 307.167 87.3667 307.094 87.2687 307.051C87.1707 307.007 87.0622 306.993 86.9566 307.01C84.3568 307.61 82.407 309.507 80.1016 310.756C77.6623 312.056 75.0873 313.074 72.425 313.789C72.3269 313.789 72.3269 313.952 72.4618 313.977Z" fill="#263238"/>
<path d="M100.925 325.663C99.5301 328.307 98.3014 331.038 97.2459 333.84C97.2118 333.908 97.2055 333.987 97.2285 334.06C97.2515 334.132 97.3019 334.193 97.3685 334.227C97.4352 334.262 97.5127 334.268 97.584 334.245C97.6553 334.222 97.7145 334.17 97.7487 334.102C99.8334 331.244 101.513 328.072 103.451 325.101C105.388 322.13 107.314 319.433 109.423 316.724C112.776 312.314 116.84 308.515 121.441 305.488C122.62 304.722 123.849 304.038 125.12 303.441C126.429 302.687 127.896 302.259 129.399 302.192C132.122 302.342 133.888 305.001 135.102 307.061C138.032 312.055 140.534 317.323 145.071 321.131C147.059 322.893 149.457 324.105 152.037 324.652C153.135 324.976 154.306 324.941 155.384 324.552C155.716 324.34 155.924 324.028 155.593 323.728C155.483 323.641 155.311 323.728 155.384 323.903C155.458 324.077 153.803 323.74 153.729 323.715L152.674 323.416C151.934 323.183 151.215 322.883 150.528 322.517C149.218 321.821 147.985 320.984 146.849 320.02C144.428 317.817 142.396 315.207 140.841 312.305C139.43 309.87 138.18 307.311 136.61 304.976C135.388 302.869 133.524 301.225 131.3 300.295C128.504 299.371 125.671 300.395 123.145 301.543C120.708 302.666 118.401 304.06 116.266 305.701C111.91 309.064 108.174 313.184 105.229 317.873C103.662 320.391 102.225 322.992 100.925 325.663Z" fill="#263238"/>
<path d="M107.952 331.229C107.09 333.314 106.481 335.499 106.137 337.734C106.134 337.77 106.143 337.806 106.163 337.837C106.182 337.867 106.212 337.89 106.246 337.902C106.28 337.913 106.317 337.913 106.35 337.901C106.384 337.888 106.413 337.864 106.432 337.833C107.658 335.661 108.516 333.252 109.792 331.079C111.067 328.907 112.244 326.76 113.471 324.675C115.765 320.93 118.423 317.429 121.405 314.226C122.815 312.765 124.47 311.516 126.531 311.729C128.463 312.127 130.198 313.2 131.436 314.762C134.207 317.921 135.483 322.253 138.34 325.349C139.606 326.763 141.186 327.847 142.949 328.512C144.711 329.176 146.604 329.402 148.469 329.169C148.592 329.169 148.628 328.907 148.469 328.87C146.068 328.285 143.818 327.182 141.872 325.636C139.974 323.978 138.412 321.96 137.273 319.694C135.164 315.948 133.116 311.878 129.13 310.006C127.383 309.151 125.376 309.026 123.538 309.656C121.623 310.506 119.94 311.817 118.633 313.476C115.518 316.915 112.836 320.735 110.65 324.85C109.603 326.908 108.702 329.04 107.952 331.229Z" fill="#263238"/>
<path d="M90.2072 329.121C90.1777 329.221 90.1851 329.328 90.2281 329.422C90.271 329.516 90.3465 329.591 90.4402 329.633H90.5996C90.6694 329.633 90.7382 329.617 90.8002 329.584C90.8622 329.551 90.9154 329.504 90.9553 329.446C92.8105 326.491 94.8204 323.641 96.9764 320.906C99.2416 318.101 101.661 315.43 104.224 312.904C108.47 308.488 113.005 304.372 117.799 300.582C120.164 298.747 122.732 297.201 125.451 295.975C128.038 294.826 131.582 293.266 134.035 295.488C135.459 296.992 136.587 298.759 137.358 300.694C137.702 301.418 138.045 302.117 138.401 302.779C139.891 305.599 141.645 308.266 143.637 310.744C145.571 313.161 147.888 315.233 150.492 316.874C152.982 318.471 155.821 319.414 158.757 319.62C158.857 319.631 158.958 319.602 159.038 319.539C159.118 319.477 159.171 319.385 159.186 319.283C159.213 319.186 159.201 319.081 159.153 318.993C159.105 318.904 159.024 318.838 158.929 318.809C150.774 315.9 145.538 309.546 142.594 304.727C141.773 303.378 141.025 301.918 140.326 300.519C139.627 299.121 138.903 297.71 138.069 296.362C136.291 293.428 134.01 291.93 131.337 291.843C128.124 291.755 124.789 293.179 122.25 294.402C119.461 295.773 116.826 297.448 114.39 299.396C109.463 303.475 104.866 307.95 100.643 312.779C96.2651 317.585 91.9486 322.904 90.2072 329.121Z" fill="#263238"/>
<path d="M166.752 308.534C167.157 308.733 167.402 308.122 167.096 307.872C162.989 304.692 159.447 300.82 156.623 296.424C154.31 292.594 152.714 288.361 151.914 283.94C151.49 281.676 151.273 279.377 151.264 277.073C151.264 275.388 150.835 271.131 153.263 271.118C155.691 271.106 157.028 274.077 158.438 275.5C160.049 277.165 161.949 278.511 164.042 279.47C166.118 280.46 168.428 280.825 170.701 280.522C172.974 280.219 175.114 279.261 176.869 277.76C176.897 277.736 176.916 277.703 176.921 277.667C176.927 277.63 176.919 277.593 176.899 277.562C176.879 277.531 176.849 277.509 176.814 277.499C176.779 277.49 176.742 277.493 176.71 277.51C171.314 280.569 164.238 278.184 160.069 274.089C158.377 272.441 157.003 270.057 154.6 269.395C154.114 269.202 153.593 269.116 153.071 269.144C152.55 269.171 152.041 269.311 151.577 269.554C151.113 269.797 150.705 270.138 150.381 270.554C150.056 270.97 149.822 271.452 149.694 271.967C149.206 274.266 149.065 276.628 149.277 278.971C149.389 281.345 149.742 283.7 150.332 285.999C152.748 295.138 158.315 304.189 166.752 308.534Z" fill="#263238"/>
<path d="M86.7491 320.244C85.7683 321.967 85.0372 323.826 84.5786 325.762C84.5307 325.992 84.5618 326.231 84.6667 326.44C84.7717 326.649 84.944 326.815 85.1549 326.911C85.2464 326.942 85.341 326.963 85.437 326.973C85.5883 326.98 85.7387 326.945 85.8725 326.873C86.0062 326.8 86.1184 326.693 86.1973 326.561C86.9208 325.425 87.6075 324.264 88.2942 323.115C89.7565 320.533 91.3956 318.06 93.1994 315.712C95.8861 312.406 98.8041 309.302 101.931 306.424C108.247 301.051 114.859 296.049 121.735 291.443C131.546 284.801 138.278 281.293 139.823 282.017C140.878 282.516 140.927 284.302 140.976 285.762C140.976 286.179 140.996 286.596 141.037 287.011C141.289 289.056 141.649 291.085 142.116 293.091C142.939 296.932 144.359 300.616 146.322 304.002C148.127 307.083 150.577 309.721 153.496 311.73C155.09 312.791 159.223 315.175 163.025 314.439C163.124 314.399 163.209 314.331 163.271 314.243C163.333 314.156 163.369 314.051 163.374 313.943C163.38 313.835 163.354 313.728 163.301 313.634C163.247 313.54 163.168 313.464 163.074 313.415C162.448 313.165 161.847 312.941 161.222 312.716C159.907 312.261 158.625 311.715 157.384 311.08C155.592 310.096 153.941 308.865 152.478 307.423C149.505 304.374 147.267 300.665 145.942 296.586C144.707 292.611 143.885 288.514 143.49 284.364C143.479 283.479 143.272 282.608 142.883 281.817C142.494 281.026 141.934 280.334 141.246 279.795C139.799 278.833 137.309 279.495 136.083 280.032C129.044 283.103 106.431 297.81 97.4179 306.324C94.6141 309.037 92.0873 312.032 89.8761 315.263C88.7441 316.863 87.7002 318.526 86.7491 320.244Z" fill="#263238"/>
<path d="M68.8444 308.497C73.5657 310.581 79.1575 308.497 83.4618 306.324C87.7661 304.152 91.3101 301.218 95.3446 298.834C96.387 298.234 97.4293 297.673 98.5085 297.161C99.048 296.911 99.5999 296.674 100.152 296.462C100.434 296.349 100.765 296.137 101.059 296.237C101.353 296.337 101.415 296.237 101.182 296.474C100.949 296.711 101.035 296.686 100.949 296.786C99.5508 298.559 97.3557 299.832 95.6757 301.306C92.2395 304.262 89.116 307.576 86.3559 311.193C83.7561 314.626 81.046 318.571 80.2244 322.903C80.2244 323.116 80.4697 323.191 80.58 323.041C82.2355 320.744 83.6213 318.247 85.2645 315.937C86.8782 313.685 88.6617 311.565 90.5989 309.595C92.3279 307.822 94.1306 306.112 95.9578 304.452C97.7849 302.791 99.7102 301.368 101.353 299.608C102.494 298.359 104.53 295.862 102.298 294.614C100.495 293.615 97.8217 295.326 96.2275 296.137C91.7148 298.434 87.6435 301.543 83.2534 304.015C80.9943 305.312 78.5952 306.338 76.1041 307.073C73.7284 307.692 71.2949 308.052 68.8444 308.147C68.6482 308.159 68.6482 308.422 68.8444 308.497Z" fill="#263238"/>
<path d="M125.157 332.841C125.155 332.795 125.155 332.749 125.157 332.703C125.172 332.66 125.196 332.621 125.228 332.589C125.26 332.557 125.299 332.533 125.341 332.518C125.384 332.504 125.429 332.5 125.474 332.506C125.518 332.512 125.561 332.528 125.598 332.554L125.696 332.616C126.125 332.778 126.407 333.415 126.567 333.79C126.726 334.164 126.972 334.726 127.18 335.175C127.585 336.074 127.94 336.998 128.406 337.884C128.431 337.923 128.442 337.97 128.435 338.015C128.428 338.061 128.405 338.103 128.37 338.132C128.335 338.162 128.291 338.177 128.245 338.175C128.2 338.173 128.157 338.154 128.124 338.122C127.255 337.52 126.513 336.747 125.941 335.849C125.685 335.413 125.46 334.958 125.267 334.489C125.147 334.194 125.068 333.882 125.034 333.565C124.998 333.316 125.041 333.062 125.157 332.841Z" fill="#263238"/>
<path d="M29.1008 198.16H25.4219V154.39H68.4157V158.135H29.1008V198.16Z" fill="#006DB6"/>
<path d="M214.443 346.81H171.449V343.065H210.764V303.04H214.443V346.81Z" fill="#006DB6"/>
<path d="M68.4157 346.81H25.4219V303.04H29.1008V343.065H68.4157V346.81Z" fill="#006DB6"/>
<path d="M214.443 198.16H210.764V158.135H171.449V154.39H214.443V198.16Z" fill="#006DB6"/>
<path d="M223.91 356.461H221.004V355.524H222.99V353.502H223.91V356.461Z" fill="#006DB6"/>
<path d="M216.073 356.461H211.168V355.524H216.073V356.461ZM206.263 356.461H201.358V355.524H206.263V356.461ZM196.453 356.461H191.547V355.524H196.453V356.461ZM186.642 356.461H181.737V355.524H186.642V356.461ZM176.832 356.461H171.927V355.524H176.832V356.461ZM167.022 356.461H162.116V355.524H167.022V356.461ZM157.211 356.461H152.306V355.524H157.211V356.461ZM147.401 356.461H142.496V355.524H147.401V356.461ZM137.59 356.461H132.685V355.524H137.59V356.461ZM127.78 356.461H122.875V355.524H127.78V356.461ZM117.97 356.461H113.065V355.524H117.97V356.461ZM108.159 356.461H103.254V355.524H108.159V356.461ZM98.3491 356.461H93.4439V355.524H98.3491V356.461ZM88.5387 356.461H83.6336V355.524H88.5387V356.461ZM78.7284 356.461H73.8232V355.524H78.7284V356.461ZM68.918 356.461H64.0129V355.524H68.918V356.461ZM59.1077 356.461H54.2025V355.524H59.1077V356.461ZM49.2974 356.461H44.3922V355.524H49.2974V356.461ZM39.487 356.461H34.5818V355.524H39.487V356.461ZM29.6767 356.461H24.7715V355.524H29.6767V356.461Z" fill="#006DB6"/>
<path d="M18.8614 356.461H15.9551V353.502H16.8748V355.524H18.8614V356.461Z" fill="#006DB6"/>
<path d="M16.8745 348.472H15.918V343.478H16.8377L16.8745 348.472ZM16.8745 338.484H15.918V333.49H16.8377L16.8745 338.484ZM16.8745 328.497H15.918V323.503H16.8377L16.8745 328.497ZM16.8745 318.509H15.918V313.515H16.8377L16.8745 318.509ZM16.8745 308.522H15.918V303.528H16.8377L16.8745 308.522ZM16.8745 298.534H15.918V293.54H16.8377L16.8745 298.534ZM16.8745 288.547H15.918V283.553H16.8377L16.8745 288.547ZM16.8745 278.559H15.918V273.565H16.8377L16.8745 278.559ZM16.8745 268.572H15.918V263.578H16.8377L16.8745 268.572ZM16.8745 258.584H15.918V253.591H16.8377L16.8745 258.584ZM16.8745 248.597H15.918V243.603H16.8377L16.8745 248.597ZM16.8745 238.609H15.918V233.616H16.8377L16.8745 238.609ZM16.8745 228.622H15.918V223.628H16.8377L16.8745 228.622ZM16.8745 218.634H15.918V213.641H16.8377L16.8745 218.634ZM16.8745 208.647H15.918V203.653H16.8377L16.8745 208.647ZM16.8745 198.597H15.918V193.603H16.8377L16.8745 198.597ZM16.8745 188.609H15.918V183.616H16.8377L16.8745 188.609ZM16.8745 178.622H15.918V173.628H16.8377L16.8745 178.622ZM16.8745 168.635H15.918V163.641H16.8377L16.8745 168.635ZM16.8745 158.647H15.918V153.653H16.8377L16.8745 158.647Z" fill="#006DB6"/>
<path d="M16.8748 147.711H15.9551V144.752H18.8614V145.688H16.8748V147.711Z" fill="#006DB6"/>
<path d="M216.073 145.688H211.168V144.752H216.073V145.688ZM206.263 145.688H201.358V144.752H206.263V145.688ZM196.453 145.688H191.547V144.752H196.453V145.688ZM186.642 145.688H181.737V144.752H186.642V145.688ZM176.832 145.688H171.927V144.752H176.832V145.688ZM167.022 145.688H162.116V144.752H167.022V145.688ZM157.211 145.688H152.306V144.752H157.211V145.688ZM147.401 145.688H142.496V144.752H147.401V145.688ZM137.59 145.688H132.685V144.752H137.59V145.688ZM127.78 145.688H122.875V144.752H127.78V145.688ZM117.97 145.688H113.065V144.752H117.97V145.688ZM108.159 145.688H103.254V144.752H108.159V145.688ZM98.3491 145.688H93.4439V144.752H98.3491V145.688ZM88.5387 145.688H83.6336V144.752H88.5387V145.688ZM78.7284 145.688H73.8232V144.752H78.7284V145.688ZM68.918 145.688H64.0129V144.752H68.918V145.688ZM59.1077 145.688H54.2025V144.752H59.1077V145.688ZM49.2974 145.688H44.3922V144.752H49.2974V145.688ZM39.487 145.688H34.5818V144.752H39.487V145.688ZM29.6767 145.688H24.7715V144.752H29.6767V145.688Z" fill="#006DB6"/>
<path d="M223.91 147.711H222.99V145.688H221.004V144.752H223.91V147.711Z" fill="#006DB6"/>
<path d="M223.91 348.472H222.99V343.478H223.91V348.472ZM223.91 338.484H222.99V333.49H223.91V338.484ZM223.91 328.497H222.99V323.503H223.91V328.497ZM223.91 318.509H222.99V313.515H223.91V318.509ZM223.91 308.522H222.99V303.528H223.91V308.522ZM223.91 298.534H222.99V293.54H223.91V298.534ZM223.91 288.547H222.99V283.553H223.91V288.547ZM223.91 278.559H222.99V273.565H223.91V278.559ZM223.91 268.572H222.99V263.578H223.91V268.572ZM223.91 258.584H222.99V253.591H223.91V258.584ZM223.91 248.597H222.99V243.603H223.91V248.597ZM223.91 238.609H222.99V233.616H223.91V238.609ZM223.91 228.622H222.99V223.628H223.91V228.622ZM223.91 218.634H222.99V213.641H223.91V218.634ZM223.91 208.647H222.99V203.653H223.91V208.647ZM223.91 198.597H222.99V193.603H223.91V198.597ZM223.91 188.609H222.99V183.616H223.91V188.609ZM223.91 178.622H222.99V173.628H223.91V178.622ZM223.91 168.635H222.99V163.641H223.91V168.635ZM223.91 158.647H222.99V153.653H223.91V158.647Z" fill="#006DB6"/>
<path d="M283.701 500.681H396.937C397.869 496.936 398.764 493.315 399.672 489.72C400.702 485.558 401.711 481.526 402.701 477.622C402.909 476.748 403.142 475.874 403.363 475.013C404.111 472.004 404.834 469.07 405.558 466.274C405.987 464.526 406.416 462.816 406.784 461.13C407.152 459.445 407.643 457.71 408.011 456.062C408.121 455.625 408.231 455.175 408.342 454.813C408.452 454.451 408.575 453.852 408.685 453.39L409.114 451.68C409.274 451.08 409.421 450.494 409.556 449.907C409.85 448.796 410.12 447.71 410.377 446.636C410.782 445.063 411.162 443.515 411.542 442.004C411.702 441.355 411.873 440.694 412.033 440.057C412.303 438.996 412.56 437.972 412.805 436.973C412.977 436.299 413.136 435.637 413.296 435.001C413.97 432.354 414.583 429.87 415.16 427.51C415.319 426.898 415.454 426.262 415.614 425.712C415.859 424.701 416.104 423.74 416.337 422.803C416.496 422.217 416.631 421.655 416.766 421.093C417.269 419.108 417.723 417.348 418.115 415.712C418.226 415.288 418.324 414.876 418.434 414.464L419.133 411.642C419.219 411.318 419.292 410.993 419.378 410.694C419.464 410.394 419.538 410.057 419.599 409.782C419.66 409.508 419.709 409.37 419.746 409.196C419.783 409.021 419.893 408.634 419.955 408.409C419.973 408.29 420.002 408.173 420.04 408.059L420.298 407.011H310.226C310.226 407.011 306.547 419.757 300.783 440.294C299.557 444.476 298.331 449.033 296.97 453.777C293.058 467.348 288.557 483.328 283.701 500.681Z" fill="#37474F"/>
<path d="M378.396 500.681H381.217C385.411 483.02 389.474 465.33 393.406 447.61C394.355 443.299 395.291 438.984 396.215 434.664L396.472 433.416C396.479 433.372 396.47 433.328 396.447 433.292C396.423 433.255 396.387 433.228 396.346 433.218C396.304 433.207 396.26 433.212 396.222 433.232C396.184 433.253 396.155 433.287 396.141 433.328L396.031 433.728C394.755 438.355 393.488 442.995 392.229 447.648C387.483 465.251 382.872 482.929 378.396 500.681Z" fill="#263238"/>
<path d="M313.746 406.897L318.651 431.691L322.6 451.991L329.394 486.635L330.093 490.193L331.258 496.111L332.128 500.592H396.95C397.87 496.847 398.777 493.214 399.672 489.631C400.703 485.47 401.712 481.437 402.701 477.534C402.91 476.66 403.143 475.786 403.364 474.925C404.112 471.916 404.835 468.982 405.559 466.186C405.988 464.438 406.417 462.727 406.785 461.042C407.153 459.357 407.643 457.621 408.011 455.973C408.122 455.536 408.232 455.087 408.342 454.725C408.453 454.363 408.575 453.764 408.686 453.302L409.115 451.591C409.274 450.992 409.422 450.405 409.556 449.819C409.851 448.708 410.121 447.621 410.378 446.548C410.783 444.975 411.163 443.427 411.543 441.916C411.715 441.254 411.874 440.605 412.033 439.968C412.303 438.907 412.561 437.884 412.806 436.885C412.978 436.211 413.137 435.549 413.297 434.912C413.971 432.266 414.584 429.781 415.161 427.422C415.32 426.81 415.455 426.173 415.614 425.624C415.86 424.613 416.105 423.651 416.338 422.715C416.497 422.128 416.632 421.567 416.767 421.005C417.27 419.02 417.724 417.259 418.116 415.624C418.226 415.2 418.324 414.788 418.435 414.376L419.134 411.554C419.22 411.23 419.293 410.905 419.379 410.605C419.465 410.306 419.538 409.969 419.6 409.694C419.661 409.419 419.71 409.282 419.747 409.107C419.784 408.932 419.894 408.545 419.955 408.321C419.974 408.202 420.002 408.085 420.041 407.971L420.299 406.922L313.746 406.897Z" fill="#263238"/>
<path d="M313.734 406.862C313.734 407.486 314.2 414.178 315.255 424.34C315.562 427.324 315.917 430.582 316.334 434.103C316.984 439.646 317.781 445.751 318.787 452.205C320.479 463.441 322.686 475.75 325.556 487.76C326.574 492.08 327.702 496.362 328.891 500.557H471.141C469.461 478.485 467.929 458.522 466.714 442.792C464.998 420.645 463.919 406.774 463.919 406.774H334.863L313.734 406.862Z" fill="#37474F"/>
<path d="M314.041 420.169C314.2 425.35 314.409 430.531 314.74 435.687C315.083 441.28 315.586 446.861 316.31 452.441C316.323 452.647 316.347 452.851 316.383 453.053C317.062 458.28 317.83 463.494 318.689 468.696C319.51 473.54 320.111 478.771 322.22 483.265C323.02 484.998 324.149 486.551 325.544 487.834C326.829 489.024 328.397 489.85 330.093 490.232C330.371 490.302 330.654 490.348 330.939 490.369C331.013 490.369 331.099 490.369 331.185 490.369C331.131 490.396 331.087 490.44 331.059 490.493C331.031 490.547 331.019 490.608 331.025 490.668C331.087 492.404 331.025 494.177 331.234 495.899C331.234 495.974 331.234 496.049 331.234 496.124C331.405 497.622 331.675 499.108 331.945 500.606H334.397C334.397 500.606 334.397 500.606 334.397 500.519C333.968 498.883 333.613 497.235 333.171 495.525C332.73 493.814 332.19 492.204 331.81 490.531C331.791 490.463 331.747 490.405 331.687 490.369C333.238 490.448 334.776 490.041 336.092 489.201C337.408 488.361 338.439 487.13 339.045 485.675C339.662 483.455 339.704 481.112 339.168 478.871L337.843 469.969C337.009 464.526 335.943 459.133 334.986 453.74C334.851 452.916 334.704 452.092 334.557 451.243C332.656 440.219 330.657 429.183 328.266 418.259C328.18 417.81 328.07 417.36 327.972 416.898C327.874 416.437 327.432 416.686 327.457 416.973C327.53 417.71 327.604 418.447 327.69 419.183C328.107 423.378 328.597 427.548 329.161 431.667C329.848 436.561 330.326 441.48 331.001 446.374L331.7 451.368C332.803 459.42 333.956 467.473 335.305 475.487C335.943 479.233 338.224 485.887 332.95 487.048C331.744 487.32 330.483 487.157 329.382 486.586C327.058 485.179 325.315 482.961 324.477 480.344C322.981 476.074 322.453 471.38 321.681 466.936C320.806 462.034 320.038 457.119 319.375 452.192C318.517 446.049 317.634 439.907 316.678 433.777C316.212 430.644 315.721 427.535 315.231 424.389C315.01 422.953 314.777 421.505 314.544 420.057C314.507 419.77 314.041 419.857 314.041 420.169Z" fill="#263238"/>
<path d="M439.931 458.672C434.007 458.612 428.113 457.807 422.383 456.274C419.734 455.575 417.122 454.714 414.535 453.853C411.964 453.124 409.557 451.894 407.447 450.232C403.461 446.724 401.597 441.206 399.868 436.312C397.976 430.79 396.44 425.147 395.27 419.421C395.208 419.134 394.804 419.221 394.791 419.496C394.679 425.98 395.505 432.445 397.244 438.684C398.679 443.977 400.604 449.92 404.81 453.665C409.225 457.56 415.234 458.934 420.887 459.645C427.248 460.401 433.678 460.313 440.017 459.383C440.063 459.377 440.107 459.362 440.148 459.339C440.188 459.316 440.223 459.285 440.252 459.248C440.28 459.211 440.301 459.168 440.313 459.123C440.326 459.078 440.329 459.03 440.324 458.984C440.318 458.937 440.303 458.892 440.281 458.851C440.258 458.81 440.227 458.774 440.191 458.745C440.154 458.716 440.113 458.694 440.068 458.682C440.024 458.669 439.977 458.666 439.931 458.672Z" fill="#263238"/>
<path d="M449.791 419.533C450.11 427.647 450.445 435.762 450.797 443.877C451.614 462.778 452.509 481.68 453.482 500.581H456.156C454.929 481.63 453.642 462.699 452.293 443.79C451.704 435.683 451.099 427.593 450.478 419.52C450.476 419.427 450.438 419.339 450.373 419.275C450.307 419.21 450.219 419.175 450.128 419.177C450.037 419.178 449.951 419.217 449.887 419.284C449.824 419.35 449.789 419.44 449.791 419.533Z" fill="#263238"/>
<path d="M329.529 239.958C273.487 291.381 221.529 347.698 217.458 376.437C211.829 416.237 235.852 427.286 246.643 427.386C275.976 427.685 329.283 306.662 347.825 260.457C365.827 215.589 341.841 228.66 329.529 239.958Z" fill="#D3766A"/>
<path d="M244.939 322.255L307.26 356.737C307.26 356.737 345.998 283.878 354.926 250.108C363.853 216.338 350.523 217.287 321.264 243.579C292.005 269.871 244.939 322.255 244.939 322.255Z" fill="#C7C7C7"/>
<path d="M244.939 322.255L307.26 356.737C307.26 356.737 345.998 283.878 354.926 250.108C363.853 216.338 350.523 217.287 321.264 243.579C292.005 269.871 244.939 322.255 244.939 322.255Z" fill="#006DB6"/>
<path opacity="0.1" d="M354.925 250.095C345.997 283.878 307.246 356.749 307.246 356.749L250.506 325.338L355.011 225.339C358.493 228.06 358.64 236.088 354.925 250.095Z" fill="#090A0A"/>
<path d="M257.765 312.53C281.788 329.084 305.076 339.833 309.748 342.567C309.969 342.704 310.153 342.33 309.92 342.205C305.198 339.771 279.63 323.566 257.949 312.13C257.704 311.993 257.496 312.367 257.765 312.53Z" fill="#263238"/>
<path d="M293.206 451.879L475.691 452.416C475.691 452.416 459.749 312.591 392.769 230.057C377.268 210.944 352.301 221.318 341.767 231.48C315.034 257.236 292.691 451.205 293.206 451.879Z" fill="#006DB6"/>
<path d="M355.981 222.454C360.359 225.713 364.565 229.308 368.771 232.641L381.034 242.317C384.713 245.251 388.392 248.559 392.573 250.868C396.338 252.966 400.716 253.902 404.75 252.03C405.737 251.564 406.663 250.977 407.51 250.282L407.926 250.943C405.872 252.683 403.333 253.722 400.667 253.915C396.632 254.152 392.868 252.279 389.63 250.032C385.534 247.211 381.721 243.952 377.809 240.869C370.218 234.889 362.725 228.646 354.926 222.929C355.233 222.766 355.601 222.604 355.981 222.454ZM428.761 333.677C435.218 333.637 441.664 334.218 448.014 335.412C447.867 334.976 447.707 334.526 447.536 334.089C441.956 333.049 436.297 332.51 430.625 332.479C414.107 332.167 392.009 333.215 382.027 316.736C378.091 310.244 376.815 301.617 381.144 294.963C384.958 289.096 392.083 286.561 398.766 286.624C402.251 286.645 405.701 287.34 408.932 288.671C412.748 290.442 416.269 292.81 419.368 295.687C425.303 300.831 430.834 306.861 438.265 309.72L437.676 308.272C435.464 307.304 433.366 306.085 431.422 304.639C424.518 299.557 418.939 292.516 411.262 288.546C405.384 285.529 398.652 284.711 392.242 286.237C386.111 287.747 380.654 291.805 378.385 297.984C375.859 304.876 377.833 312.766 381.868 318.646C392.242 333.715 412.66 333.465 428.761 333.677ZM400.753 269.433C405.581 267.077 410.573 265.086 415.689 263.478C415.468 263.116 415.247 262.729 415.014 262.367C403.242 265.725 392.365 273.303 380.224 275.425C365.493 277.803 350.414 274.639 337.807 266.524C334.353 264.325 331.131 261.769 328.193 258.896C328.046 259.295 327.911 259.695 327.776 260.144C330.583 262.831 333.629 265.247 336.875 267.36C349.05 275.3 363.54 278.73 377.907 277.073C385.964 275.962 393.37 272.828 400.753 269.433ZM411.789 402.079C420.787 405.39 429.983 408.117 439.32 410.244C449.669 412.741 462.472 414.838 470.835 421.966C470.725 421.355 470.602 420.718 470.48 420.131C462.129 413.652 450.148 411.579 440.178 409.207C430.814 407.062 421.587 404.335 412.55 401.043C404.787 398.134 397.111 394.226 391.433 387.922C388.985 385.254 387.094 382.108 385.876 378.674C384.658 375.241 384.137 371.591 384.345 367.947C384.823 360.581 388.943 353.877 396.068 351.58C403.708 349.083 412.231 352.017 418.607 356.449C425.892 361.53 431.128 369.158 436.732 375.949C442.042 382.429 447.928 388.434 455.691 391.704C458.603 392.961 461.706 393.7 464.863 393.889C464.777 393.527 464.704 393.14 464.606 392.766C458.413 392.366 452.343 389.27 447.536 385.475C440.46 379.907 435.383 372.154 429.558 365.337C424.224 359.095 418.117 353.552 410.244 350.956C403.426 348.708 395.59 348.933 389.826 353.715C384.799 357.909 382.8 364.701 383.143 371.13C383.561 378.161 386.502 384.79 391.408 389.757C397.025 395.537 404.358 399.257 411.777 402.054L411.789 402.079ZM389.606 433.877C388.306 439.906 388.919 446.074 388.563 452.166H389.691C390.121 444.676 388.956 436.848 392.009 429.794C392.738 427.99 393.842 426.369 395.246 425.041C396.649 423.713 398.319 422.711 400.14 422.104C404.216 421.035 408.537 421.528 412.28 423.49C420.202 427.435 424.432 435.974 428.283 443.564C429.779 446.473 431.312 449.482 433.078 452.303H434.402C430.037 445.562 427.253 437.872 422.544 431.33C417.994 425.088 411.152 419.919 403.119 420.468C395.676 420.98 391.089 426.873 389.593 433.877H389.606ZM318.064 451.991H319.511C321.143 449.063 322.311 445.89 322.969 442.591C324.735 434.301 324.195 425.724 323.631 417.335C322.282 397.897 318.983 378.047 323.165 358.733C324.764 350.823 327.791 343.284 332.092 336.499C336.605 329.632 343.129 323.178 351.014 320.556C353.089 319.772 355.297 319.422 357.507 319.527C359.718 319.632 361.885 320.19 363.878 321.168C367.237 323.092 369.895 326.07 371.457 329.657C375.442 338.296 372.977 348.072 369.176 356.286C361.732 372.316 349.653 385.824 343.656 402.628C341.005 410.133 339.895 418.111 340.397 426.07C340.9 434.029 343.002 441.798 346.575 448.895C347.115 449.956 347.679 451.005 348.28 452.041H349.616C346.667 447.109 344.468 441.751 343.092 436.149C341.082 428.177 340.823 419.852 342.332 411.767C344 403.028 347.814 395 352.142 387.41C356.471 379.819 361.634 372.429 366.036 364.676C370.439 356.923 374.706 348.221 374.62 338.971C374.535 331.829 371.273 324.264 365.068 320.531C357.71 316.087 348.893 319.108 342.455 323.777C329.787 332.978 323.361 348.421 321.007 363.652C317.941 383.527 321.779 403.602 322.699 423.502C323.079 431.442 323.055 439.644 320.32 447.222C319.742 448.891 318.985 450.491 318.064 451.991ZM336.36 284.202C332.422 280.805 327.477 278.853 322.319 278.659C322.233 278.983 322.147 279.333 322.049 279.657C323.285 279.718 324.515 279.873 325.728 280.119C333.257 281.642 340.885 287.61 340.971 296.037C341.081 305.213 333.429 312.029 326.022 315.825C321.681 318.047 317.132 319.77 312.68 321.68C312.607 322.079 312.521 322.466 312.447 322.928C315.268 321.68 318.137 320.606 321.031 319.408C328.696 316.212 336.421 311.917 340.235 304.052C341.921 300.786 342.456 297.03 341.751 293.411C341.045 289.792 339.143 286.528 336.36 284.164V284.202Z" fill="white"/>
<path d="M405.584 236.3C458.732 277.836 514.148 348.372 515.019 389.046C515.84 429.246 493.657 425.251 489.929 424.002C450.442 411.518 402.862 299.97 385.228 254.565C367.716 209.534 392.389 226.026 405.584 236.3Z" fill="#D3766A"/>
<path d="M490.969 317.324L429.262 352.942C429.262 352.942 389.236 280.795 379.72 247.187C370.204 213.579 383.558 214.316 413.333 240.046C443.107 265.776 490.969 317.324 490.969 317.324Z" fill="#006DB6"/>
<path d="M477.972 307.835C454.23 324.814 431.139 336 426.467 338.809C426.246 338.946 426.063 338.572 426.283 338.447C430.955 335.95 456.242 319.259 477.714 307.436C478.021 307.299 478.229 307.673 477.972 307.835Z" fill="#263238"/>
<path d="M433.225 350.482C431.969 350.975 430.741 351.538 429.546 352.167C423.623 340.17 424.702 342.916 418.656 330.944C415.705 325.118 412.745 319.263 409.778 313.378C406.712 307.286 403.965 300.894 400.581 295.026C400.563 294.99 400.531 294.962 400.493 294.949C400.455 294.936 400.414 294.939 400.378 294.958C400.343 294.976 400.315 295.008 400.303 295.046C400.29 295.085 400.293 295.127 400.311 295.164C402.273 300.931 404.934 306.524 407.448 312.092C406.896 311.231 406.369 310.345 405.756 309.508C404.394 307.648 403.058 305.763 401.856 303.815C401.66 303.516 401.169 303.753 401.353 304.065C402.579 305.938 403.536 307.873 404.554 309.845C405.572 311.818 406.688 313.678 407.828 315.576C408.968 317.473 410.158 319.121 411.384 320.856L411.826 321.506C413.444 324.989 415.014 328.484 416.731 331.93C422.666 344.002 428.773 353.503 428.994 353.441C430.554 352.683 432.05 351.798 433.47 350.794C433.568 350.694 433.396 350.469 433.225 350.482Z" fill="#263238"/>
<path d="M249.354 425.975C267.65 423.253 278.012 388.659 298.319 333.59C301.876 323.928 254.651 268.584 248.238 277.486C240.156 288.722 218.807 350.881 216.624 367.785C212.418 401.093 228.065 429.158 249.354 425.975Z" fill="#D3766A"/>
<path d="M277.496 389.308C279.139 384.627 280.881 379.982 282.634 375.338L287.944 361.443C289.784 356.836 291.549 352.205 293.328 347.586C294.235 345.272 295.11 342.954 295.952 340.632C296.822 338.31 297.669 335.975 298.319 333.578C297.301 338.453 295.928 343.243 294.21 347.91C292.604 352.617 290.826 357.261 289.085 361.905C287.343 366.549 285.406 371.131 283.493 375.7C281.58 380.27 279.569 384.826 277.496 389.308Z" fill="#263238"/>
<path d="M231.291 317.398C233.854 298.497 239.09 272.13 245.724 266.6C252.69 260.807 277.988 241.419 285.285 238.847C292.581 236.275 325.151 223.653 331.136 227.174C335.931 229.995 330.253 242.817 314.765 248.972C301.141 254.365 294.126 259.409 290.239 261.119C286.352 262.829 276.75 275.963 279.325 281.756C280.858 285.164 290.619 289.171 296.689 286.375C302.759 283.578 304.255 271.394 311.184 265.588C318.113 259.783 330.351 260.52 331.062 263.878C331.773 267.236 327.727 268.809 321.473 280.245C317.45 287.586 317.181 305.214 308.057 317.873C303.471 324.227 295.512 341.131 295.512 341.131L231.291 317.398Z" fill="#D3766A"/>
<path d="M317.657 260.37C319.896 260.041 321.997 259.071 323.715 257.574C324.407 256.897 324.889 256.029 325.101 255.077C325.181 254.555 325.181 254.025 325.101 253.504C325.084 252.946 324.875 252.411 324.512 251.993C324.39 251.906 324.574 251.756 324.635 251.881C324.801 252.144 324.986 252.394 325.187 252.63C325.33 252.854 325.449 253.092 325.543 253.341C325.726 253.836 325.813 254.361 325.8 254.889C325.751 256.045 325.319 257.15 324.574 258.023C323.679 258.956 322.585 259.666 321.377 260.099C320.169 260.532 318.88 260.676 317.608 260.52C317.584 260.557 317.584 260.395 317.657 260.37Z" fill="#263238"/>
<path d="M245.723 266.599C251.621 257.173 266.717 240.145 281.678 234.302C291.782 230.345 326.584 247.573 325.579 254.34C324.573 261.106 318.626 261.143 309.821 260.082C306.62 259.695 289.661 253.503 286.767 257.124C282.622 262.342 277.349 280.132 277.349 280.132L245.723 266.599Z" fill="#D3766A"/>
<path d="M324.709 251.693C320.405 244.452 310.962 240.594 301.557 237.548C301.41 237.548 301.324 237.723 301.471 237.773C303.862 238.547 319.191 245.713 324.611 251.817C324.672 251.88 324.758 251.768 324.709 251.693Z" fill="#263238"/>
<path d="M245.723 266.6C251.621 257.174 266.717 240.145 281.678 234.303C291.782 230.345 319.325 252.393 318.307 259.172C317.289 265.951 308.766 266.487 299.324 263.154C296.27 262.068 286.043 254.752 283.149 258.373C279.004 263.579 268.887 276.512 268.887 276.512L245.723 266.6Z" fill="#D3766A"/>
<path d="M274.664 268.473C275.62 266.987 275.89 266.463 276.908 264.99C277.925 263.516 278.87 262.068 279.949 260.682C280.787 259.391 281.842 258.258 283.064 257.337C284.327 256.603 285.79 256.306 287.233 256.488C290.507 256.8 293.463 258.91 296.246 260.533C299.349 262.343 305.775 265.277 310.704 264.74C312.059 264.66 313.383 264.294 314.592 263.666C315.507 263.24 316.304 262.587 316.909 261.769C319.043 258.023 316.37 253.879 313.647 250.895C308.558 245.339 301.716 241.319 295.081 238.011C293.45 237.199 291.807 236.438 290.176 235.664C288.329 234.659 286.293 234.068 284.204 233.929C280.783 233.929 275.179 237.449 273.45 238.523C273.315 238.598 273.217 238.385 273.339 238.298C275.448 236.962 280.697 232.618 286.166 232.892C288.182 233.203 290.128 233.87 291.917 234.865C293.843 235.701 295.744 236.613 297.62 237.561C301.281 239.394 304.799 241.51 308.141 243.891C311.281 246.176 314.628 248.885 316.725 252.168C317.703 253.622 318.277 255.318 318.385 257.076C318.492 258.834 318.131 260.589 317.339 262.156C315.83 264.653 312.605 265.327 311.133 265.526C309.689 265.72 308.225 265.72 306.78 265.526C303.563 264.82 300.399 263.881 297.313 262.717C294.321 261.469 291.623 259.447 288.545 258.498C287.818 258.244 287.049 258.141 286.282 258.195C285.516 258.248 284.767 258.458 284.081 258.81C282.824 259.666 281.699 260.71 280.746 261.906C278.688 263.967 276.824 266.22 275.179 268.635C274.774 269.334 274.32 269.122 274.664 268.473Z" fill="#263238"/>
<path d="M241.357 274.839C243.516 270.345 247.158 251.843 250.665 246.125C254.172 240.407 270.163 220.819 277.643 221.668C287.049 222.73 277.263 239.97 272.346 247.074C267.428 254.178 268.275 266.25 268.275 266.25L241.357 274.839Z" fill="#D3766A"/>
<path d="M279.202 235.351C277.449 237.599 275.904 240.095 274.383 242.505C272.818 244.744 271.416 247.098 270.189 249.546C269.16 252.052 268.543 254.714 268.362 257.424C268.239 258.759 268.203 260.083 268.19 261.419C268.178 262.754 268.313 264.352 268.288 265.801C268.282 265.819 268.281 265.839 268.284 265.859C268.287 265.878 268.294 265.897 268.306 265.913C268.317 265.929 268.332 265.942 268.349 265.951C268.366 265.96 268.385 265.964 268.405 265.964C268.424 265.964 268.443 265.96 268.461 265.951C268.478 265.942 268.493 265.929 268.504 265.913C268.516 265.897 268.523 265.878 268.526 265.859C268.529 265.839 268.527 265.819 268.521 265.801C268.688 263.138 269.028 260.49 269.539 257.873C269.996 255.15 270.783 252.496 271.881 249.97C274.076 244.977 277.289 240.482 279.521 235.501C279.57 235.314 279.325 235.189 279.202 235.351Z" fill="#263238"/>
<path d="M268.387 268.322C268.524 270.563 268.982 272.771 269.748 274.877C270.445 277.015 271.289 279.101 272.274 281.119C273.226 283.133 274.286 285.091 275.45 286.986C276.578 288.896 277.903 290.619 279.288 292.442C282.107 296 284.354 299.991 285.947 304.265C287.44 308.54 288.187 313.048 288.154 317.585C287.746 313.115 286.714 308.726 285.089 304.552C283.345 300.45 281.064 296.607 278.307 293.129C276.905 291.359 275.611 289.504 274.432 287.573C273.28 285.618 272.256 283.586 271.366 281.493C269.674 277.336 268.104 272.892 268.387 268.322Z" fill="#263238"/>
<path d="M335.477 241.905C335.742 244.837 336.151 247.754 336.703 250.644C337.138 253.276 337.807 255.863 338.702 258.372C340.456 262.879 343.804 267.111 348.966 268.272C351.368 268.741 353.837 268.714 356.228 268.193C358.619 267.672 360.882 266.667 362.885 265.238C367.164 262.367 370.5 258.297 373.553 254.34C375.458 251.893 377.245 249.371 378.912 246.774C379.746 245.451 380.605 244.152 381.365 242.792C382.125 241.431 382.849 240.057 383.707 238.759C383.781 238.647 384.001 238.759 383.94 238.847C382.272 241.918 377.269 251.655 375.601 254.065C372.548 258.459 369.225 262.941 364.798 266.187C360.557 269.473 355.227 270.95 349.935 270.307C347.399 269.903 345.006 268.845 342.984 267.235C340.963 265.625 339.379 263.515 338.383 261.106C337.212 258.229 336.464 255.192 336.164 252.092C335.747 248.697 335.526 245.276 335.379 241.868C335.403 241.868 335.477 241.868 335.477 241.905Z" fill="#263238"/>
<path d="M353.147 259.795C364.405 259.483 378.286 238.123 381.99 222.854C382.235 221.805 368.967 186.263 367.054 178.934C366.637 177.436 324.783 202.305 324.783 202.305C324.783 202.305 333.232 216.45 336.482 229.234C336.74 230.307 342.258 260.095 353.147 259.795Z" fill="#D3766A"/>
<path d="M324.783 202.305C324.783 202.305 333.232 216.449 336.482 229.246C336.482 229.495 336.899 231.356 337.549 234.052C358.482 226.225 368.648 209.084 373.308 197.56C370.45 189.496 367.814 181.918 367.054 178.959C366.637 177.436 324.783 202.305 324.783 202.305Z" fill="#263238"/>
<path d="M300.747 119.471C298.061 119.933 289.048 141.731 290.36 151.269C291.672 160.807 297.792 179.284 300.587 179.196C303.383 179.109 302.868 119.109 300.747 119.471Z" fill="#263238"/>
<path d="M365.153 127.923C374.399 142.817 378.581 192.105 370.058 205.738C357.66 225.501 331.062 234.452 312.974 217.861C295.426 201.756 291.085 137.424 301.226 124.378C316.138 105.164 351.492 105.926 365.153 127.923Z" fill="#D3766A"/>
<path d="M330.363 159.396C331.79 159.6 333.227 159.729 334.667 159.783C336.323 159.908 337.635 160.195 339.143 159.334C339.543 159.04 339.836 158.62 339.978 158.14C340.12 157.659 340.102 157.144 339.928 156.675C339.07 154.715 337.083 154.041 335.096 153.803C333.105 153.485 331.069 153.93 329.382 155.052C329.004 155.331 328.715 155.717 328.552 156.162C328.388 156.607 328.356 157.091 328.461 157.554C328.565 158.018 328.802 158.439 329.14 158.767C329.478 159.094 329.903 159.313 330.363 159.396Z" fill="#263238"/>
<path d="M332.3 170.158C332.3 170.02 332.57 170.283 332.582 170.42C332.815 173.753 333.636 177.524 336.69 178.323C336.788 178.323 336.8 178.51 336.69 178.51C332.987 178.373 331.944 173.341 332.3 170.158Z" fill="#263238"/>
<path d="M334.814 166.388C340.025 165.427 341.509 176.101 336.69 176.975C331.87 177.849 330.46 167.187 334.814 166.388Z" fill="#263238"/>
<path d="M313.513 172.344C313.513 172.219 313.28 172.543 313.304 172.668C313.868 175.964 313.966 179.822 311.183 181.345C311.097 181.345 311.183 181.557 311.183 181.532C314.751 180.546 314.555 175.415 313.513 172.344Z" fill="#263238"/>
<path d="M310.13 169.359C304.857 169.721 305.936 180.433 310.816 180.108C315.697 179.784 314.557 169.072 310.13 169.359Z" fill="#263238"/>
<path d="M305.321 163.679C306.685 163.183 308.024 162.617 309.331 161.982C310.864 161.307 312.152 160.933 313.096 159.485C313.316 159.034 313.385 158.523 313.292 158.029C313.199 157.535 312.949 157.086 312.581 156.751C310.925 155.415 308.841 155.764 306.964 156.488C305.05 157.162 303.45 158.537 302.476 160.346C302.285 160.77 302.217 161.24 302.282 161.702C302.346 162.164 302.541 162.596 302.841 162.948C303.141 163.3 303.535 163.557 303.975 163.686C304.415 163.816 304.883 163.814 305.321 163.679Z" fill="#263238"/>
<path d="M338.995 197.174C338.333 198.06 337.769 199.234 336.543 199.508C335.332 199.662 334.103 199.552 332.937 199.184C332.925 199.176 332.912 199.17 332.898 199.167C332.883 199.164 332.869 199.164 332.854 199.167C332.84 199.17 332.827 199.176 332.815 199.184C332.803 199.192 332.792 199.203 332.784 199.215C332.776 199.227 332.771 199.241 332.768 199.256C332.765 199.27 332.765 199.285 332.768 199.3C332.771 199.314 332.776 199.328 332.784 199.34C332.792 199.352 332.803 199.363 332.815 199.371C333.365 199.964 334.063 200.393 334.834 200.613C335.605 200.833 336.42 200.835 337.193 200.62C337.829 200.349 338.372 199.893 338.753 199.308C339.135 198.724 339.339 198.038 339.339 197.336C339.351 197.087 339.093 197.049 338.995 197.174Z" fill="#263238"/>
<path d="M334.213 187.773C333.571 189.201 332.646 190.478 331.496 191.525C330.346 192.571 328.996 193.364 327.53 193.853C326.256 194.296 324.926 194.552 323.581 194.615C323.324 194.64 323.066 194.64 322.809 194.615C322.568 194.627 322.326 194.627 322.085 194.615C321.906 194.606 321.735 194.537 321.598 194.42C321.461 194.303 321.365 194.143 321.325 193.966C321.313 193.854 321.313 193.74 321.325 193.628V193.341C320.896 190.844 320.601 186.899 320.601 186.899C319.755 187.499 315.39 190.295 315.279 188.959C314.396 177.861 313.403 165.526 314.813 154.303C314.827 154.232 314.865 154.169 314.92 154.123C314.974 154.078 315.043 154.053 315.114 154.053C315.184 154.053 315.253 154.078 315.308 154.123C315.363 154.169 315.4 154.232 315.414 154.303C316.64 164.939 316.113 175.726 317.229 186.412C318.775 185.389 320.455 184.595 322.22 184.053C322.588 184.053 322.662 191.544 322.944 192.73C322.935 192.766 322.935 192.805 322.944 192.842C327.211 192.842 330.203 191.032 333.87 187.574C334.078 187.324 334.36 187.486 334.213 187.773Z" fill="#263238"/>
<path d="M370.831 170.232C362.394 172.168 356.925 163.066 352.216 149.945C349.457 142.268 349.445 126.225 349.445 126.225C349.445 126.225 328.99 139.608 316.469 140.183C303.949 140.757 291.944 131.356 291.208 121.456C290.582 112.904 303.176 99.9705 321.546 96.6497C334.361 94.3401 357.514 101.893 368.979 114.69C368.979 114.69 386.233 120.37 385.461 133.166C384.688 145.963 380.408 168.035 370.831 170.232Z" fill="#263238"/>
<path d="M370.095 169.322C359.168 173.279 350.952 156.837 349.493 147.911C347.972 138.61 350.253 128.685 350.646 119.359H350.572C348.218 130.932 345.937 145.477 351.161 156.525C354.447 163.492 361.278 174.815 370.315 169.933C370.622 169.759 370.438 169.197 370.095 169.322Z" fill="#263238"/>
<path d="M387.482 129.022C384.895 121.532 375.293 115.152 367.862 114.341C367.788 114.341 367.763 114.453 367.862 114.466C376.912 116.488 388.243 125.265 386.857 135.489C385.741 143.654 383.386 154.528 378.935 161.494C378.825 161.669 379.082 161.831 379.205 161.669C382.81 156.887 383.901 151.132 385.336 145.439C386.526 140.408 389.224 134.203 387.482 129.022Z" fill="#263238"/>
<path d="M370.768 115.589C358.653 102.106 334.458 88.2232 316.309 95.3393C316.309 95.3393 316.309 95.4517 316.309 95.4267C335.807 89.6215 356.041 104.415 370.155 116.301C370.597 116.65 371.112 115.963 370.768 115.589Z" fill="#263238"/>
<path d="M365.41 171.494C365.41 171.494 371.971 153.479 379.746 155.464C387.52 157.449 385.313 181.681 378.115 186.763C377.236 187.487 376.223 188.022 375.137 188.338C374.05 188.654 372.912 188.742 371.79 188.599C370.669 188.455 369.588 188.083 368.612 187.503C367.635 186.924 366.784 186.15 366.109 185.227L365.41 171.494Z" fill="#D3766A"/>
<path d="M378.985 162.355C379.12 162.355 379.182 162.48 379.083 162.568C374.092 166.313 372.498 172.418 371.848 178.435C372.964 175.938 374.939 174.128 378.225 175.402C378.397 175.464 378.323 175.739 378.152 175.739C377.087 175.683 376.031 175.964 375.129 176.543C374.226 177.122 373.522 177.97 373.111 178.972C372.447 180.655 371.958 182.404 371.652 184.191C371.517 184.777 370.549 184.74 370.585 184.103C370.58 184.058 370.58 184.011 370.585 183.966C368.586 176.775 371.542 165.152 378.985 162.355Z" fill="#263238"/>
<path d="M342.98 251.431L368.732 329.595C369.738 331.867 368.732 333.852 366.476 334.027L326.057 337.136C324.824 337.143 323.613 336.795 322.565 336.132C321.518 335.47 320.675 334.519 320.134 333.391L294.382 255.226C293.377 252.941 294.382 250.956 296.638 250.782L337.033 247.623C338.276 247.62 339.495 247.976 340.548 248.65C341.601 249.324 342.444 250.288 342.98 251.431Z" fill="#37474F"/>
<path d="M338.174 251.756L363.926 329.921C364.932 332.193 363.926 334.19 361.67 334.365L321.264 337.524C320.024 337.522 318.81 337.164 317.762 336.49C316.714 335.816 315.875 334.855 315.341 333.716L289.589 255.551C288.571 253.279 289.589 251.294 291.845 251.119L332.3 247.961C333.531 247.968 334.734 248.327 335.773 248.999C336.812 249.67 337.644 250.626 338.174 251.756Z" fill="#455A64"/>
<path d="M327.395 256.263C327.462 256.954 327.728 257.609 328.16 258.145C328.592 258.682 329.171 259.076 329.823 259.278C330.476 259.48 331.172 259.48 331.824 259.278C332.477 259.077 333.056 258.683 333.488 258.147C333.921 257.611 334.187 256.956 334.254 256.265C334.321 255.574 334.185 254.879 333.864 254.267C333.542 253.655 333.05 253.154 332.448 252.827C331.847 252.5 331.164 252.362 330.486 252.43C329.577 252.522 328.741 252.977 328.161 253.695C327.582 254.414 327.306 255.337 327.395 256.263Z" fill="#263238"/>
<path d="M498.267 424.526C480.682 427.135 458.486 413.415 400.973 371.667C393.002 365.85 417.945 297.722 426.725 303.428C437.823 310.631 479.358 341.068 482.117 343.69C505.453 365.85 510.224 422.653 498.267 424.526Z" fill="#D3766A"/>
<path d="M447.363 323.74C447.363 323.74 430.857 300.719 418.509 291.343C401.966 278.859 382.615 274.914 374.362 273.778C357.194 271.405 314.274 277.735 313.844 290.669C313.501 302.379 357.157 293.64 357.157 293.64C357.157 293.64 311.208 295.063 313.342 309.233C315.475 323.403 365.606 310.344 365.606 310.344C365.606 310.344 318.418 312.841 322.894 327.148C326.279 337.922 372.326 328.684 372.326 328.684C372.326 328.684 331.785 331.181 334.789 342.416C338.125 354.826 381.143 349.021 381.143 349.021C393.615 376.237 410.415 384.064 423.046 388.172C426.099 389.158 447.363 323.74 447.363 323.74Z" fill="#D3766A"/>
<path d="M373.074 292.117C367.666 292.117 362.196 292.017 356.813 292.466C351.43 292.916 346.046 293.578 340.724 294.539C327.664 296.911 319.877 300.481 320.368 300.307C332.336 296.374 351.589 294.426 356.985 293.965C362.38 293.503 367.715 292.779 373.098 292.317C373.233 292.304 373.196 292.117 373.074 292.117Z" fill="#263238"/>
<path d="M375.049 311.893C368.145 312.155 361.29 312.155 354.398 312.729C347.506 313.303 341.081 314.464 334.275 315.513C333.747 315.588 333.968 315.85 334.495 315.788C341.326 315.014 347.715 314.839 354.558 314.152C361.4 313.466 368.231 312.492 375.073 312.055C375.221 312.055 375.221 311.893 375.049 311.893Z" fill="#263238"/>
<path d="M379.745 328.559C369.174 328.41 358.591 330.245 348.253 332.305C347.738 332.405 348.057 332.717 348.585 332.642C359.033 331.194 367.212 329.983 379.745 328.896C379.929 328.909 379.965 328.559 379.745 328.559Z" fill="#263238"/>
<path d="M466.273 331.68C470.835 334.738 475.225 338.047 479.481 341.555C481.615 343.292 483.661 345.137 485.612 347.085C487.632 349.022 489.407 351.207 490.897 353.59C493.729 358.385 496.107 363.443 497.998 368.696C499.96 373.904 501.351 379.318 502.143 384.838C501.555 382.13 500.818 379.459 499.935 376.836C499.089 374.201 498.157 371.605 497.115 369.045C495.121 363.913 492.692 358.967 489.855 354.264C488.456 351.93 486.766 349.79 484.827 347.897C482.927 345.937 480.879 344.152 478.843 342.279C476.807 340.406 474.698 338.683 472.589 336.923C470.48 335.163 468.419 333.39 466.273 331.68Z" fill="#263238"/>
<path d="M292.164 86.9873C292.164 86.9873 287.124 128.061 278.834 137.312C268.889 148.398 261.666 146.775 257.656 152.493C253.634 146.762 246.423 148.398 236.465 137.299C228.188 128.061 223.16 86.9873 223.16 86.9873C244.988 76.2008 257.668 64.1035 257.668 64.1035C258.048 64.4905 270.667 76.3631 292.164 86.9873Z" fill="#006DB6"/>
<path opacity="0.2" d="M257.656 64.116V152.493C253.634 146.762 246.423 148.398 236.465 137.299C228.188 128.061 223.16 86.9873 223.16 86.9873C244.988 76.2008 257.668 64.1035 257.668 64.1035L257.656 64.116Z" fill="#090A0A"/>
<path opacity="0.1" d="M292.164 86.9866C292.164 86.9866 287.124 128.06 278.834 137.311C268.889 148.397 261.666 146.774 257.656 152.492V64.1152C258.049 64.4898 270.667 76.3624 292.164 86.9866Z" fill="#090A0A"/>
<path d="M286.806 90.2955C286.806 90.2955 282.551 125.002 275.548 132.805C267.148 142.193 261.041 140.807 257.657 145.639C254.26 140.807 248.165 142.193 239.753 132.805C232.751 125.002 228.508 90.2955 228.508 90.2955C246.902 81.1819 257.657 70.9697 257.657 70.9697C257.657 70.9697 268.362 81.2069 286.806 90.2955Z" fill="#006DB6"/>
<path opacity="0.1" d="M257.656 70.983V145.639C254.272 140.808 248.165 142.181 239.765 132.805C232.763 124.99 228.52 90.2838 228.52 90.2838C246.914 81.1702 257.656 70.958 257.656 70.958V70.983Z" fill="#090A0A"/>
<path d="M270.716 101.693H244.596V125.813H270.716V101.693Z" fill="white"/>
<path d="M268.104 109.147H265.443V98.3729C265.443 96.2703 264.623 94.2539 263.162 92.7672C261.702 91.2805 259.721 90.4453 257.656 90.4453C255.591 90.4453 253.61 91.2805 252.15 92.7672C250.69 94.2539 249.869 96.2703 249.869 98.3729V109.147H247.208V98.3729C247.11 96.9181 247.307 95.4583 247.786 94.0843C248.266 92.7102 249.017 91.4511 249.995 90.3853C250.972 89.3195 252.155 88.4697 253.469 87.8887C254.782 87.3076 256.199 87.0078 257.632 87.0078C259.064 87.0078 260.481 87.3076 261.795 87.8887C263.108 88.4697 264.291 89.3195 265.268 90.3853C266.246 91.4511 266.998 92.7102 267.477 94.0843C267.956 95.4583 268.153 96.9181 268.055 98.3729L268.104 109.147Z" fill="white"/>
<path d="M258.477 114.166L259.323 118.236H255.742L256.588 114.166C256.258 113.957 256.003 113.644 255.863 113.275C255.722 112.905 255.704 112.499 255.811 112.118C255.918 111.737 256.143 111.401 256.454 111.163C256.765 110.924 257.143 110.795 257.533 110.795C257.922 110.795 258.3 110.924 258.611 111.163C258.922 111.401 259.148 111.737 259.254 112.118C259.361 112.499 259.343 112.905 259.203 113.275C259.062 113.644 258.808 113.957 258.477 114.166Z" fill="#37474F"/>
<path d="M258.11 249.446H252.886V248.497H257.656V248.822H258.11V249.446ZM247.981 249.446H243.076V248.497H247.981V249.446ZM238.171 249.446H233.265V248.497H238.171V249.446ZM228.36 249.446H223.455V248.497H228.36V249.446ZM258.11 243.841H257.19V238.847H258.11V243.841ZM258.11 233.853H257.19V228.86H258.11V233.853ZM258.11 223.866H257.19V218.872H258.11V223.866ZM258.11 213.878H257.19V208.885H258.11V213.878ZM258.11 203.891H257.19V198.897H258.11V203.891ZM258.11 193.903H257.19V188.91H258.11V193.903ZM258.11 183.916H257.19V178.922H258.11V183.916ZM258.11 173.928H257.19V168.935H258.11V173.928ZM258.11 163.941H257.19V158.947H258.11V163.941Z" fill="#006DB6"/>
<path d="M259.729 157.923C259.729 157.506 259.607 157.098 259.38 156.751C259.152 156.404 258.828 156.134 258.45 155.974C258.071 155.814 257.654 155.773 257.252 155.854C256.85 155.935 256.481 156.136 256.191 156.431C255.901 156.727 255.704 157.102 255.624 157.512C255.544 157.921 255.585 158.345 255.742 158.731C255.899 159.116 256.164 159.446 256.505 159.678C256.846 159.909 257.247 160.033 257.656 160.033C258.206 160.033 258.733 159.811 259.122 159.415C259.511 159.02 259.729 158.483 259.729 157.923Z" fill="#006DB6"/>
<path d="M79.1321 102.217H16.2109V19.9824H62.9327L79.1321 35.6628V102.217Z" fill="#EBEBEB"/>
<path d="M62.9336 19.9824L79.1329 35.6628H62.9336V19.9824Z" fill="#DBDBDB"/>
<path d="M22.3537 35.8877L57.3398 35.8877V33.7778L22.3537 33.7778V35.8877Z" fill="#DBDBDB"/>
<path d="M22.3537 41.2188L57.3398 41.2188V39.1089L22.3537 39.1089V41.2188Z" fill="#DBDBDB"/>
<path d="M22.3537 46.5625L57.3398 46.5625V44.4527L22.3537 44.4527V46.5625Z" fill="#DBDBDB"/>
<path d="M22.3542 51.8936L73.6133 51.8936V49.7837L22.3542 49.7837V51.8936Z" fill="#DBDBDB"/>
<path d="M22.3542 57.2246L73.6133 57.2246V55.1148L22.3542 55.1148V57.2246Z" fill="#DBDBDB"/>
<path d="M22.3542 62.5557L73.6133 62.5557V60.4458L22.3542 60.4458V62.5557Z" fill="#DBDBDB"/>
<path d="M22.3542 67.8857H73.6133V65.7759H22.3542V67.8857Z" fill="#DBDBDB"/>
<path d="M22.3542 73.2051H73.6133V71.0952H22.3542V73.2051Z" fill="#DBDBDB"/>
<path d="M22.3542 78.5352H73.6133V76.4253H22.3542V78.5352Z" fill="#DBDBDB"/>
<path d="M22.3542 83.8662H73.6133V81.7564H22.3542V83.8662Z" fill="#DBDBDB"/>
<path d="M22.3542 89.1963H73.6133V87.0864H22.3542V89.1963Z" fill="#DBDBDB"/>
<path d="M22.3542 94.5283H73.6133V92.4185H22.3542V94.5283Z" fill="#DBDBDB"/>
<path d="M83.3834 109.704C89.0095 107.316 91.669 100.737 89.3236 95.0093C86.9783 89.2817 80.5161 86.5741 74.89 88.9618C69.264 91.3495 66.6044 97.9283 68.9498 103.656C71.2952 109.384 77.7573 112.091 83.3834 109.704Z" fill="#263238"/>
<path d="M84.6007 96.5H73.6621V106.612H84.6007V96.5Z" fill="white"/>
<path d="M83.5105 99.6093H82.3946V95.1024C82.3946 94.2217 82.0509 93.377 81.4392 92.7542C80.8274 92.1315 79.9978 91.7816 79.1326 91.7816C78.2675 91.7816 77.4378 92.1315 76.8261 92.7542C76.2144 93.377 75.8707 94.2217 75.8707 95.1024V99.6093H74.7793V95.1024C74.7793 93.9204 75.2405 92.7867 76.0615 91.9509C76.8826 91.1151 77.9961 90.6455 79.1572 90.6455C80.3182 90.6455 81.4318 91.1151 82.2528 91.9509C83.0738 92.7867 83.535 93.9204 83.535 95.1024L83.5105 99.6093Z" fill="white"/>
<path d="M79.5971 101.668L80.0508 103.89H78.1133L78.567 101.668C78.389 101.555 78.2521 101.385 78.1771 101.185C78.1021 100.985 78.0929 100.766 78.1511 100.56C78.2092 100.354 78.3315 100.174 78.4994 100.045C78.6674 99.9163 78.8719 99.8467 79.0821 99.8467C79.2923 99.8467 79.4967 99.9163 79.6647 100.045C79.8326 100.174 79.9549 100.354 80.013 100.56C80.0712 100.766 80.062 100.985 79.987 101.185C79.912 101.385 79.7751 101.555 79.5971 101.668Z" fill="#263238"/>
<path d="M122.249 145.215H121.378V140.221H122.298L122.249 145.215ZM122.249 135.227H121.378V130.233H122.298L122.249 135.227ZM122.249 125.24H121.378V120.246H122.298L122.249 125.24ZM122.249 115.252H121.378V110.258H122.298L122.249 115.252ZM122.249 105.265H121.378V100.271H122.298L122.249 105.265ZM122.249 95.2773H121.378V90.2835H122.298L122.249 95.2773ZM122.249 85.2898H121.378V80.296H122.298L122.249 85.2898ZM122.249 75.3023H121.378V70.3086H122.298L122.249 75.3023ZM117.699 69.9715H112.794V69.0352H117.699V69.9715ZM107.889 69.9715H102.983V69.0352H107.889V69.9715ZM98.0783 69.9715H93.1732V69.0352H98.0783V69.9715ZM88.268 69.9715H86.1465V69.0352H88.268V69.9715Z" fill="#006DB6"/>
<path d="M86.196 67.4737C85.7811 67.4713 85.375 67.595 85.0295 67.829C84.6841 68.063 84.4151 68.3966 84.257 68.7871C84.0988 69.1776 84.0588 69.6072 84.1419 70.0211C84.225 70.4349 84.4275 70.8141 84.7235 71.1101C85.0195 71.4061 85.3955 71.6054 85.8034 71.6826C86.2113 71.7598 86.6326 71.7113 87.0133 71.5433C87.3939 71.3754 87.7167 71.0956 87.9404 70.7398C88.164 70.384 88.2782 69.9683 88.2684 69.5461C88.2557 68.994 88.0321 68.4688 87.6452 68.0819C87.2582 67.6949 86.7384 67.4768 86.196 67.4737Z" fill="#006DB6"/>
<path d="M157.504 422.916H154.622V422.03H157.504V422.916ZM149.717 422.916H144.811V422.03H149.717V422.916ZM139.906 422.916H135.001V422.03H139.906V422.916ZM130.096 422.916H125.191V422.03H130.096V422.916ZM122.248 420.919H121.377V415.925H122.297L122.248 420.919ZM122.248 410.931H121.377V405.937H122.297L122.248 410.931ZM122.248 400.944H121.377V395.95H122.297L122.248 400.944ZM122.248 390.956H121.377V385.962H122.297L122.248 390.956ZM122.248 380.969H121.377V375.975H122.297L122.248 380.969ZM122.248 370.981H121.377V365.987H122.297L122.248 370.981ZM122.248 360.994H121.377V356H122.297L122.248 360.994Z" fill="#006DB6"/>
<path d="M157.395 424.563C158.539 424.563 159.467 423.619 159.467 422.454C159.467 421.288 158.539 420.344 157.395 420.344C156.25 420.344 155.322 421.288 155.322 422.454C155.322 423.619 156.25 424.563 157.395 424.563Z" fill="#006DB6"/>
<path d="M243.001 408.759H164.641V456.898H243.001V408.759Z" fill="#455A64"/>
<path d="M192.698 414.813H170.797V443.328H192.698V414.813Z" fill="white"/>
<path d="M181.748 431.505C184.613 431.505 186.935 429.141 186.935 426.224C186.935 423.308 184.613 420.943 181.748 420.943C178.883 420.943 176.561 423.308 176.561 426.224C176.561 429.141 178.883 431.505 181.748 431.505Z" fill="#455A64"/>
<path d="M192.698 443.327H170.797C170.797 443.327 171.398 438.009 172.465 436.424C173.532 434.838 176.352 433.053 181.748 433.053C187.143 433.053 189.964 434.838 191.031 436.424C192.098 438.009 192.698 443.327 192.698 443.327Z" fill="#455A64"/>
<path d="M234.418 414.813H198.365V416.199H234.418V414.813Z" fill="white"/>
<path d="M234.418 428.371H198.365V429.757H234.418V428.371Z" fill="white"/>
<path d="M234.418 432.367H198.365V433.753H234.418V432.367Z" fill="white"/>
<path d="M234.418 436.349H198.365V437.734H234.418V436.349Z" fill="white"/>
<path d="M234.418 440.345H198.365V441.73H234.418V440.345Z" fill="white"/>
<path d="M234.418 444.326H198.365V445.712H234.418V444.326Z" fill="white"/>
<path d="M227.563 418.809H198.365V420.194H227.563V418.809Z" fill="white"/>
<path d="M247.249 467.282C252.875 464.894 255.534 458.315 253.189 452.587C250.843 446.86 244.381 444.152 238.755 446.54C233.129 448.928 230.47 455.506 232.815 461.234C235.16 466.962 241.623 469.669 247.249 467.282Z" fill="#263238"/>
<path d="M248.472 454.064H237.533V464.177H248.472V454.064Z" fill="white"/>
<path d="M247.379 457.173H246.263V452.666C246.263 451.785 245.919 450.94 245.307 450.318C244.696 449.695 243.866 449.345 243.001 449.345C242.136 449.345 241.306 449.695 240.694 450.318C240.083 450.94 239.739 451.785 239.739 452.666V457.173H238.623V452.666C238.623 451.484 239.084 450.35 239.905 449.514C240.726 448.679 241.84 448.209 243.001 448.209C244.162 448.209 245.276 448.679 246.097 449.514C246.918 450.35 247.379 451.484 247.379 452.666V457.173Z" fill="white"/>
<path d="M243.467 459.233L243.921 461.455H241.971L242.437 459.233C242.294 459.142 242.177 459.014 242.098 458.863C242.018 458.712 241.979 458.542 241.983 458.37C241.988 458.199 242.036 458.032 242.124 457.885C242.211 457.738 242.335 457.618 242.482 457.535C242.63 457.451 242.796 457.409 242.964 457.411C243.133 457.413 243.298 457.46 243.443 457.547C243.588 457.634 243.709 457.758 243.792 457.907C243.876 458.056 243.92 458.225 243.921 458.396C243.921 458.563 243.879 458.728 243.8 458.874C243.72 459.02 243.606 459.144 243.467 459.233Z" fill="#263238"/>
<path d="M514.994 500.681L450.626 500.98L386.246 501.093L257.497 501.305L128.749 501.093L64.3804 500.98L0 500.681L64.3804 500.369L128.749 500.269L257.497 500.057L386.246 500.269L450.626 500.381L514.994 500.681Z" fill="#263238"/>
</svg>